<svg xmlns="http://www.w3.org/2000/svg" xmlns:xlink="http://www.w3.org/1999/xlink" width="171.753" height="150" viewBox="0 0 171.753 150">
  <defs>
    <clipPath id="clip-path">
      <path id="Контур_140" data-name="Контур 140" d="M370.086,313.24l10.774,23.513-6.778,1.911-7.992-9.95Z" transform="translate(-366.09 -313.24)" fill="none"/>
    </clipPath>
    <clipPath id="clip-path-2">
      <path id="Контур_150" data-name="Контур 150" d="M298.791,296.31l-14.031,6.464,7.482,30.356-2.383,12.77h26.619l-2.634-13.876,6.46-29.164-14.712-6.039Z" transform="translate(-284.76 -296.31)" fill="none"/>
    </clipPath>
    <clipPath id="clip-path-3">
      <path id="Контур_157" data-name="Контур 157" d="M267.242,313.02,256.19,336.954l7.056,1.489,7.992-9.95Z" transform="translate(-256.19 -313.02)" fill="none"/>
    </clipPath>
    <clipPath id="clip-path-4">
      <path id="Контур_162" data-name="Контур 162" d="M263.406,369.51l13.926,15.9-2.708,3.06-17.574-14a2.355,2.355,0,0,1-.963-3.52" transform="translate(-255.625 -369.51)" fill="none"/>
    </clipPath>
    <clipPath id="clip-path-5">
      <path id="Контур_178" data-name="Контур 178" d="M376.322,370.83l-4.642,15.795,3.358,2.344,7.6-12.193s3.118-3.52,1.161-5.5" transform="translate(-371.68 -370.83)" fill="none"/>
    </clipPath>
    <clipPath id="clip-path-6">
      <path id="Контур_207" data-name="Контур 207" d="M317.959,218s-7.768,7.172-9.934,12.379A14,14,0,0,0,309,242.63c1.2,1.571,1.934,1.791,1.934,1.791a5.764,5.764,0,0,1-6.8-2.538c-2.689-4.108-2.019-8.743-1.2-11.954s.6-12.627,2.464-15.764,4.557-5.455,9.041-4.932a9.784,9.784,0,0,1,8.29,5.752c1.42,2.913.747,7.845,1.2,10.012s2.391,8.665,2.839,12.549-4.847,6.669-5.683,7.044a4.971,4.971,0,0,1-1.791.387s1.791-8.963,2.166-14.12.4-8.22.4-8.22S318.334,218.22,317.959,218Z" transform="translate(-302.21 -209.16)" fill="none"/>
    </clipPath>
  </defs>
  <g id="Call_center-bro" data-name="Call center-bro" transform="translate(0.018 -0.004)">
    <g id="freepik--background-simple--inject-16" transform="translate(1.024 0.004)">
      <path id="Контур_131" data-name="Контур 131" d="M66.435,205.221a51.4,51.4,0,0,0,43.293-.569c23.09-11.071,30.605-32.54,42.568-48.647,6.276-8.441,16.542-13.144,24.376-20.24,25.042-22.7,16-60.64-6.9-71.052-19.839-9.014-42.754-5.784-71.148,9.475S49.768,99.3,34.861,129.706,41.315,190.5,66.435,205.221Z" transform="translate(-29.935 -59.724)" fill="#b12419"/>
      <path id="Контур_132" data-name="Контур 132" d="M66.435,205.221a51.4,51.4,0,0,0,43.293-.569c23.09-11.071,30.605-32.54,42.568-48.647,6.276-8.441,16.542-13.144,24.376-20.24,25.042-22.7,16-60.64-6.9-71.052-19.839-9.014-42.754-5.784-71.148,9.475S49.768,99.3,34.861,129.706,41.315,190.5,66.435,205.221Z" transform="translate(-29.935 -59.724)" fill="#4dd1cd" opacity="0.8"/>
    </g>
    <g id="freepik--Window--inject-16" transform="translate(-0.018 6.904)">
      <rect id="Прямоугольник_349" data-name="Прямоугольник 349" width="156.153" height="0.387" transform="translate(3.643 112.262)" fill="#263238"/>
      <rect id="Прямоугольник_350" data-name="Прямоугольник 350" width="156.153" height="0.387" transform="translate(3.643 82.742)" fill="#263238"/>
      <rect id="Прямоугольник_351" data-name="Прямоугольник 351" width="156.153" height="0.387" transform="translate(3.643 53.222)" fill="#263238"/>
      <rect id="Прямоугольник_352" data-name="Прямоугольник 352" width="156.153" height="0.387" transform="translate(3.643 23.702)" fill="#263238"/>
      <rect id="Прямоугольник_353" data-name="Прямоугольник 353" width="0.387" height="105.392" transform="translate(38.958 7.133)" fill="#263238"/>
      <rect id="Прямоугольник_354" data-name="Прямоугольник 354" width="0.387" height="105.392" transform="translate(132.853 7.133)" fill="#263238"/>
      <rect id="Прямоугольник_355" data-name="Прямоугольник 355" width="1.687" height="0.387" transform="matrix(0.688, -0.725, 0.725, 0.688, 41.334, 47.294)" fill="#263238"/>
      <rect id="Прямоугольник_356" data-name="Прямоугольник 356" width="26.692" height="0.387" transform="matrix(0.688, -0.725, 0.725, 0.688, 43.902, 44.591)" fill="#263238"/>
      <rect id="Прямоугольник_357" data-name="Прямоугольник 357" width="14.793" height="0.387" transform="translate(53.11 38.98) rotate(-45.79)" fill="#263238"/>
      <rect id="Прямоугольник_358" data-name="Прямоугольник 358" width="1.687" height="0.387" transform="matrix(0.689, -0.725, 0.725, 0.689, 135.762, 47.302)" fill="#263238"/>
      <rect id="Прямоугольник_359" data-name="Прямоугольник 359" width="26.692" height="0.387" transform="translate(138.317 44.596) rotate(-46.54)" fill="#263238"/>
      <rect id="Прямоугольник_360" data-name="Прямоугольник 360" width="14.793" height="0.387" transform="translate(147.513 38.98) rotate(-45.79)" fill="#263238"/>
      <rect id="Прямоугольник_361" data-name="Прямоугольник 361" width="1.687" height="0.387" transform="matrix(0.689, -0.725, 0.725, 0.689, 0, 106.907)" fill="#263238"/>
      <rect id="Прямоугольник_362" data-name="Прямоугольник 362" width="26.692" height="0.387" transform="translate(2.557 104.216) rotate(-46.54)" fill="#263238"/>
      <rect id="Прямоугольник_363" data-name="Прямоугольник 363" width="14.801" height="0.387" transform="translate(11.755 98.592) rotate(-45.79)" fill="#263238"/>
      <rect id="Прямоугольник_364" data-name="Прямоугольник 364" width="1.683" height="0.387" transform="matrix(0.687, -0.726, 0.726, 0.687, 15.196, 22.07)" fill="#263238"/>
      <rect id="Прямоугольник_365" data-name="Прямоугольник 365" width="26.692" height="0.387" transform="matrix(0.688, -0.725, 0.725, 0.688, 17.749, 19.367)" fill="#263238"/>
      <rect id="Прямоугольник_366" data-name="Прямоугольник 366" width="14.793" height="0.387" transform="translate(26.992 13.758) rotate(-45.79)" fill="#263238"/>
      <rect id="Прямоугольник_367" data-name="Прямоугольник 367" width="1.683" height="0.387" transform="matrix(0.687, -0.726, 0.726, 0.687, 101.229, 22.076)" fill="#263238"/>
      <rect id="Прямоугольник_368" data-name="Прямоугольник 368" width="26.692" height="0.387" transform="translate(103.81 19.375) rotate(-46.54)" fill="#263238"/>
      <rect id="Прямоугольник_369" data-name="Прямоугольник 369" width="14.793" height="0.387" transform="translate(113.01 13.759) rotate(-45.79)" fill="#263238"/>
      <rect id="Прямоугольник_370" data-name="Прямоугольник 370" width="1.687" height="0.387" transform="matrix(0.689, -0.725, 0.725, 0.689, 74.631, 77.961)" fill="#263238"/>
      <rect id="Прямоугольник_371" data-name="Прямоугольник 371" width="26.692" height="0.387" transform="translate(77.209 75.268) rotate(-46.54)" fill="#263238"/>
      <rect id="Прямоугольник_372" data-name="Прямоугольник 372" width="14.793" height="0.387" transform="translate(86.413 69.65) rotate(-45.79)" fill="#263238"/>
    </g>
    <g id="freepik--Plants--inject-16" transform="translate(144.128 37.499)">
      <path id="Контур_133" data-name="Контур 133" d="M410.343,260s-9.578-20.41-7.5-21,6.445,2.662,6.445,2.662-12.8-34.313-9.489-36.975,9.5,10.959,9.5,10.959-6.611-21.017-5.834-29.013,9.176-.294,9.176-.294-6.727-28.692-.48-30.174S418.207,189,418.207,189s2.05-24.553,4.553-17.749S420,200.827,420,200.827s3.431-7.691,5.338-.592-3.791,35.791-3.791,35.791,4.843-4.731,5.3,1.184-10.027,24.255-10.027,24.255l-5.93.6Z" transform="translate(-399.253 -156.119)" fill="#b12419"/>
      <path id="Контур_134" data-name="Контур 134" d="M410.343,260s-9.578-20.41-7.5-21,6.445,2.662,6.445,2.662-12.8-34.313-9.489-36.975,9.5,10.959,9.5,10.959-6.611-21.017-5.834-29.013,9.176-.294,9.176-.294-6.727-28.692-.48-30.174S418.207,189,418.207,189s2.05-24.553,4.553-17.749S420,200.827,420,200.827s3.431-7.691,5.338-.592-3.791,35.791-3.791,35.791,4.843-4.731,5.3,1.184-10.027,24.255-10.027,24.255l-5.93.6Z" transform="translate(-399.253 -156.119)" fill="#4dd1cd" opacity="0.6"/>
      <path id="Контур_135" data-name="Контур 135" d="M418.152,289.431a.193.193,0,0,1-.17-.1c-.329-.584-8.019-14.313-6.507-17.052a1.323,1.323,0,0,1,1.106-.774h.077c1.35,0,3.168,1.934,4.217,3.211-2.166-5.5-9.4-24.263-8.058-26.414a.824.824,0,0,1,.774-.441c1.613.1,4.3,5.354,5.369,7.563-.286-5.973-1.346-30.948.948-32.572a.553.553,0,0,1,.545-.07c1.3.518,2.1,3.745,2.592,7.323-.313-11.048-.468-26.638,1.091-27.7a.456.456,0,0,1,.456-.043c2.53,1.126,2.526,35.826,2.487,43.892,1.048-3.157,3.54-10.128,5.126-10.128h.05c.534.05.859.743,1.025,2.178.677,5.892-3.544,19.11-5.663,25.257,1.636-3.149,4.193-7.455,5.834-7.2.716.116,1.161.99,1.323,2.669.631,6-2.514,15.621-4.472,20.89.282-.367.549-.584.774-.538.306.062.437.433.437,1.246,0,3.551-2,7.888-2.089,8.07a.194.194,0,0,1-.352-.162c.019-.043,2.05-4.445,2.05-7.907,0-.774-.128-.867-.132-.87-.282,0-1.161,1.571-1.981,3.482l-.178.422a.193.193,0,0,1-.356-.151l.205-.487c1.122-2.735,6.511-16.34,5.714-23.953-.151-1.439-.5-2.244-1-2.321-1.8-.3-5.609,7.164-6.925,10.058a.193.193,0,0,1-.356-.147c.077-.205,7.66-20.754,6.789-28.309-.186-1.617-.534-1.822-.677-1.838h-.031c-1.191,0-3.772,6.75-5.126,11.048a.19.19,0,0,1-.213.132.193.193,0,0,1-.162-.193c.116-17.547-.387-43.95-2.251-44.781a.07.07,0,0,0-.081,0c-1.451.99-1.253,19.342-.712,33.71.139,2.321.174,4.043.178,4.255a.193.193,0,1,1-.387,0c-.031-.642-.093-2.135-.17-4.182-.329-5.416-1.16-12.665-2.948-13.377a.166.166,0,0,0-.178.023c-1.934,1.381-1.188,24.445-.739,33.215a.2.2,0,1,1-.387.089c-1.033-2.255-4.023-8.124-5.458-8.224a.422.422,0,0,0-.414.259c-1.161,1.868,5.8,20.364,8.592,27.335a.193.193,0,0,1-.337.186c-.839-1.161-3.342-4.224-4.8-4.132a.948.948,0,0,0-.774.565c-1.161,2.108,4.3,12.766,6.507,16.673a.193.193,0,0,1-.17.29Z" transform="translate(-405.016 -184.448)" fill="#263238"/>
    </g>
    <g id="freepik--character-2--inject-16" transform="translate(88.397 56.828)">
      <path id="Контур_136" data-name="Контур 136" d="M342.826,253.52,353.6,277.033l-6.778,1.911-7.992-9.95Z" transform="translate(-295.928 -212.068)" fill="#4dd1cd"/>
      <g id="Сгруппировать_608" data-name="Сгруппировать 608" transform="translate(42.902 41.453)" clip-path="url(#clip-path)">
        <g id="Сгруппировать_607" data-name="Сгруппировать 607" transform="translate(0.565 3.246)" opacity="0.1">
          <path id="Контур_137" data-name="Контур 137" d="M343.406,272.98l-.456,1.776,8.948,15.4,1.284-.36Z" transform="translate(-341.921 -268.698)"/>
          <path id="Контур_138" data-name="Контур 138" d="M347.768,297.253l1.292-.364L340.735,283.4l-.445,1.729Z" transform="translate(-340.29 -275.087)"/>
          <path id="Контур_139" data-name="Контур 139" d="M346.242,261.91l-.472,1.834,10.275,18.944,1.269-.36Z" transform="translate(-343.65 -261.91)"/>
        </g>
      </g>
      <path id="Контур_141" data-name="Контур 141" d="M373.777,338.549a.193.193,0,0,1-.151-.074l-7.992-9.95a.194.194,0,0,1-.035-.17l4-15.474a.193.193,0,0,1,.17-.143.2.2,0,0,1,.193.112l10.774,23.513a.193.193,0,0,1-.124.267l-6.778,1.911ZM366,328.36l7.853,9.776,6.437-1.814L369.843,313.5Z" transform="translate(-322.883 -271.48)" fill="#263238"/>
      <path id="Контур_142" data-name="Контур 142" d="M271.531,236.59,257.5,243.054l7.482,30.356L262.6,286.18h26.619L286.583,272.3l6.46-29.164L278.332,237.1Z" transform="translate(-246.06 -201.687)" fill="#4dd1cd"/>
      <g id="Сгруппировать_610" data-name="Сгруппировать 610" transform="translate(11.44 34.903)" clip-path="url(#clip-path-2)">
        <g id="Сгруппировать_609" data-name="Сгруппировать 609" transform="translate(3.327 0.468)" opacity="0.1">
          <path id="Контур_143" data-name="Контур 143" d="M310.9,349.444l.538-12.093a.846.846,0,0,0,0-.17l-5.513-35.091-1.625.739,5.416,34.526-.538,12.081Z" transform="translate(-300.068 -300.322)"/>
          <path id="Контур_144" data-name="Контур 144" d="M320.178,331.655v-.046l-4.371-34.089-1.636.774,4.294,33.528,1.106,14.839H321.3Z" transform="translate(-306.12 -297.52)"/>
          <path id="Контур_145" data-name="Контур 145" d="M299.325,352.553l1.547-11.8a.858.858,0,0,0,0-.263l-5.9-33.327-1.613.743,5.8,32.754-1.547,11.9Z" transform="translate(-293.36 -303.431)"/>
          <path id="Контур_146" data-name="Контур 146" d="M363.1,311.535l-1.621-.665-5.915,30.588a.877.877,0,0,0,0,.3l2.128,13.068h1.745l-2.162-13.191.05-.251-.085-.433,1.3-5.837Z" transform="translate(-331.49 -305.706)"/>
          <path id="Контур_147" data-name="Контур 147" d="M305,245.57l-1.718.05,1.427,46.066h1.718Z" transform="translate(-288.897 -242.564)"/>
          <path id="Контур_148" data-name="Контур 148" d="M347.831,338.959l5.714-31.42-1.625-.669-5.8,31.93a.771.771,0,0,0,0,.3l2.267,13.277h1.745Z" transform="translate(-325.699 -303.253)"/>
          <path id="Контур_149" data-name="Контур 149" d="M339.766,334.96l4.344-32.2-1.644-.673-4.418,32.747a.775.775,0,0,0,0,.209l1.6,14.4h1.729Z" transform="translate(-320.757 -300.322)"/>
        </g>
      </g>
      <path id="Контур_151" data-name="Контур 151" d="M316.175,345.808H289.556a.193.193,0,0,1-.19-.228l2.375-12.727-7.47-30.317a.193.193,0,0,1,.108-.22l14.031-6.464a.193.193,0,0,1,.1,0l6.8.511h.058l14.7,6.039a.193.193,0,0,1,.116.22l-6.453,29.126,2.627,13.838a.193.193,0,0,1-.19.228Zm-26.387-.387h26.151l-2.592-13.648a.192.192,0,0,1,0-.077l6.426-29.013-14.534-5.965-6.72-.5L284.682,302.6l7.443,30.2a.189.189,0,0,1,0,.081Z" transform="translate(-273.018 -261.121)" fill="#263238"/>
      <path id="Контур_152" data-name="Контур 152" d="M239.982,253.3,228.93,277.234l7.056,1.489,7.992-9.95Z" transform="translate(-228.542 -211.933)" fill="#4dd1cd"/>
      <g id="Сгруппировать_613" data-name="Сгруппировать 613" transform="translate(0.388 41.367)" clip-path="url(#clip-path-3)">
        <g id="Сгруппировать_612" data-name="Сгруппировать 612" transform="translate(1.366 2.356)">
          <g id="Сгруппировать_611" data-name="Сгруппировать 611" opacity="0.1">
            <path id="Контур_153" data-name="Контур 153" d="M252.808,282.38l-7.7,14.008.8.166,1.841-2.294,5.528-10.058Z" transform="translate(-240.216 -273.486)"/>
            <path id="Контур_154" data-name="Контур 154" d="M248.8,272.37l-.5-1.95-8.592,18.193,1.3.275Z" transform="translate(-236.905 -266.153)"/>
            <path id="Контур_155" data-name="Контур 155" d="M232.46,281.255l1.3.275,9.5-20.182-.507-1.957Z" transform="translate(-232.46 -259.39)"/>
          </g>
          <path id="Контур_156" data-name="Контур 156" d="M261.15,275.513l-4.867-7.447.325-.213,2.967,4.542-3.3-8.839.364-.135Z" transform="translate(-247.065 -261.861)" fill="#263238"/>
        </g>
      </g>
      <path id="Контур_158" data-name="Контур 158" d="M262.942,338.336H262.9l-7.056-1.489a.193.193,0,0,1-.135-.271l11.052-23.934a.2.2,0,0,1,.193-.112.193.193,0,0,1,.17.143l4,15.474a.193.193,0,0,1-.035.17l-7.992,9.95A.193.193,0,0,1,262.942,338.336Zm-6.778-1.822,6.7,1.416,7.857-9.783-3.837-14.855Z" transform="translate(-255.498 -271.351)" fill="#263238"/>
      <path id="Контур_159" data-name="Контур 159" d="M263.406,369.51l13.926,15.9-2.708,3.06-17.574-14a2.355,2.355,0,0,1-.963-3.52" transform="translate(-255.456 -306.29)" fill="#4dd1cd"/>
      <g id="Сгруппировать_615" data-name="Сгруппировать 615" transform="translate(0.169 63.22)" clip-path="url(#clip-path-4)">
        <g id="Сгруппировать_614" data-name="Сгруппировать 614" transform="translate(2.749)" opacity="0.1">
          <path id="Контур_160" data-name="Контур 160" d="M258.082,326.8l1.308-1.118-7.033-8.186L245.6,309.79l-1.818.36Z" transform="translate(-240.565 -309.79)"/>
          <path id="Контур_161" data-name="Контур 161" d="M250.2,328.5l1.164.928,1.095-.963-15.041-17.1-1.95.383Z" transform="translate(-235.47 -310.759)"/>
        </g>
      </g>
      <path id="Контур_163" data-name="Контур 163" d="M274.376,388.32a.194.194,0,0,1-.12-.043L256.7,374.293a2.94,2.94,0,0,1-1.427-1.632,2.631,2.631,0,0,1,.387-2.151.193.193,0,0,1,.329.2,2.259,2.259,0,0,0-.364,1.841,2.588,2.588,0,0,0,1.246,1.4l.035.023,17.431,13.884,2.472-2.8-13.834-15.776a.193.193,0,1,1,.29-.255l13.926,15.9a.193.193,0,0,1,0,.255l-2.708,3.06A.193.193,0,0,1,274.376,388.32Z" transform="translate(-255.188 -305.955)" fill="#263238"/>
      <g id="Сгруппировать_616" data-name="Сгруппировать 616" transform="translate(17.979 77.088)">
        <path id="Контур_164" data-name="Контур 164" d="M303.644,407.113c.387-.217,7.114-1.826,7.207-1s2.1,1.733,3.01,1.733,1.826-.731,2.008.364-.82,1.188-1.64,1.277a17.145,17.145,0,0,1-3.652-.82,33.5,33.5,0,0,1-3.741,2.735,4.535,4.535,0,0,1-3.83-.182A2.452,2.452,0,0,1,303.644,407.113Z" transform="translate(-301.967 -405.677)" fill="#fff"/>
        <path id="Контур_165" data-name="Контур 165" d="M304.788,411.614a3.868,3.868,0,0,1-2.205-.561,2.832,2.832,0,0,1-.913-2.279,2.673,2.673,0,0,1,1.578-2.151h0c.306-.162,6.24-1.671,7.273-1.161a.387.387,0,0,1,.22.29c.077.685,1.965,1.547,2.816,1.547a3.312,3.312,0,0,0,.774-.128,1.352,1.352,0,0,1,1.072,0,.905.905,0,0,1,.352.654,1.16,1.16,0,0,1-.174.917,2.243,2.243,0,0,1-1.6.58,16.21,16.21,0,0,1-3.667-.774,34.02,34.02,0,0,1-3.7,2.708A4.255,4.255,0,0,1,304.788,411.614Zm-1.447-4.82.093.17a2.31,2.31,0,0,0-1.377,1.841,2.449,2.449,0,0,0,.774,1.934,4.36,4.36,0,0,0,3.625.162,36.89,36.89,0,0,0,3.7-2.708.194.194,0,0,1,.182-.035,16.031,16.031,0,0,0,3.571.812c.549-.058,1.133-.124,1.369-.433a.774.774,0,0,0,.1-.619.569.569,0,0,0-.182-.387c-.151-.1-.449-.027-.774.05a3.652,3.652,0,0,1-.867.139c-.932,0-3.095-.921-3.2-1.9-.433-.437-6.364.851-6.921,1.161Zm0,0Z" transform="translate(-301.663 -405.359)" fill="#263238"/>
      </g>
      <g id="Сгруппировать_617" data-name="Сгруппировать 617" transform="translate(25.657 76.685)">
        <path id="Контур_166" data-name="Контур 166" d="M322,405.419s2.553-.731,3.095-.456.824,5.749.824,5.749-.275.545-.824,0a37.2,37.2,0,0,1-2.371-4.642" transform="translate(-321.811 -404.674)" fill="#fff"/>
        <path id="Контур_167" data-name="Контур 167" d="M325.271,410.77a.867.867,0,0,1-.592-.3,34.38,34.38,0,0,1-2.41-4.7.193.193,0,1,1,.352-.159,36.048,36.048,0,0,0,2.321,4.584.472.472,0,0,0,.344.186.244.244,0,0,0,.147-.1c-.132-2.53-.437-5.277-.723-5.532a8.624,8.624,0,0,0-2.944.476.2.2,0,0,1-.108-.387c.437-.128,2.658-.739,3.234-.445s.824,3.826.928,5.911a.189.189,0,0,1-.019.1.658.658,0,0,1-.449.34Z" transform="translate(-321.511 -404.316)" fill="#263238"/>
      </g>
      <g id="Сгруппировать_618" data-name="Сгруппировать 618" transform="translate(24.029 77.2)">
        <path id="Контур_168" data-name="Контур 168" d="M318.164,406.392s2.646-.638,3.2.364,1.934,5.474.82,5.66-1.458-1.28-1.458-1.28l-1.733-3.191-1.188-.182" transform="translate(-317.608 -405.981)" fill="#fff"/>
        <path id="Контур_169" data-name="Контур 169" d="M321.689,412.29c-.851,0-1.315-.89-1.455-1.42l-1.675-3.095-1.091-.166a.193.193,0,0,1-.163-.22.2.2,0,0,1,.221-.163l1.188.182a.194.194,0,0,1,.139.1l1.733,3.191a.2.2,0,0,1,0,.046c0,.054.337,1.292,1.238,1.137.046,0,.1-.031.155-.139.414-.855-.6-4.3-1.114-5.234-.387-.716-2.286-.437-2.979-.267a.2.2,0,1,1-.089-.387c.286-.07,2.809-.642,3.412.46.476.87,1.644,4.511,1.122,5.59a.588.588,0,0,1-.437.352A1.31,1.31,0,0,1,321.689,412.29Z" transform="translate(-317.304 -405.646)" fill="#263238"/>
      </g>
      <g id="Сгруппировать_619" data-name="Сгруппировать 619" transform="translate(23.481 77.959)">
        <path id="Контур_170" data-name="Контур 170" d="M316.39,408.4s1.277-.545,1.934-.089,3.559,5.106,3.01,5.292-1.826.089-2.008-.275-2.553-3.482-2.553-3.482" transform="translate(-316.196 -407.928)" fill="#fff"/>
        <path id="Контур_171" data-name="Контур 171" d="M320.271,413.564c-.6,0-1.28-.139-1.447-.472-.128-.255-1.586-2.205-2.534-3.451a.195.195,0,0,1,.309-.236c.244.321,2.387,3.141,2.573,3.513.1.209,1.161.352,1.714.2,0-.673-2.445-4.573-3-4.971-.449-.321-1.4-.031-1.725.108a.193.193,0,1,1-.151-.356c.054-.023,1.385-.584,2.1-.07.557.387,3.28,4.534,3.153,5.385a.3.3,0,0,1-.193.251,2.681,2.681,0,0,1-.8.1Z" transform="translate(-315.887 -407.61)" fill="#263238"/>
      </g>
      <g id="Сгруппировать_620" data-name="Сгруппировать 620" transform="translate(22.571 79.007)">
        <path id="Контур_172" data-name="Контур 172" d="M314,411.568s1.184-1.095,1.822-.727,3.284,3.83,2.739,4.193-.913,0-1.458-.727a6.384,6.384,0,0,0-1.369-1.277l-1.095.364" transform="translate(-313.82 -410.592)" fill="#fff"/>
        <path id="Контур_173" data-name="Контур 173" d="M317.874,415.1c-.5,0-.886-.514-1.211-.948a6.167,6.167,0,0,0-1.246-1.161l-1,.333a.193.193,0,1,1-.12-.368l1.095-.364a.194.194,0,0,1,.17.023,6.577,6.577,0,0,1,1.412,1.315c.6.8.832.932,1.2.689.159-.437-2.077-3.482-2.727-3.868-.422-.244-1.315.441-1.594.7a.193.193,0,0,1-.263-.282c.132-.124,1.311-1.161,2.05-.754.588.337,2.878,3.246,2.909,4.166a.387.387,0,0,1-.159.356A.916.916,0,0,1,317.874,415.1Z" transform="translate(-313.535 -410.317)" fill="#263238"/>
      </g>
      <path id="Контур_174" data-name="Контур 174" d="M376.322,370.83l-4.642,15.795,3.358,2.344,7.6-12.193s3.118-3.52,1.161-5.5" transform="translate(-326.615 -307.099)" fill="#b12419"/>
      <g id="Сгруппировать_622" data-name="Сгруппировать 622" transform="translate(45.065 63.731)" clip-path="url(#clip-path-5)">
        <g id="Сгруппировать_621" data-name="Сгруппировать 621" transform="translate(0.008 0.062)" opacity="0.1">
          <path id="Контур_175" data-name="Контур 175" d="M350.96,329.391l.058-.1,6.426-17.536-1.795-.108L349.44,328.6l.7.484Z" transform="translate(-347.506 -311.503)"/>
          <path id="Контур_176" data-name="Контур 176" d="M344.44,327.015l1.458,1.021,6-16.611-.166-.058-1.605-.1Z" transform="translate(-344.44 -311.27)"/>
          <path id="Контур_177" data-name="Контур 177" d="M394.321,372.819a2.174,2.174,0,0,0-.549-.925l-.921-.054L388,384.834l4.611-7.42Z" transform="translate(-381.694 -371.511)"/>
        </g>
      </g>
      <path id="Контур_179" data-name="Контур 179" d="M374.731,388.844a.194.194,0,0,1-.112-.035l-3.358-2.344a.193.193,0,0,1-.074-.213l4.642-15.795a.2.2,0,0,1,.387.108l-4.6,15.663,3.095,2.147,7.478-12.019c.05-.062,2.994-3.435,1.188-5.261a.193.193,0,0,1,.275-.271c2.062,2.085-1.021,5.617-1.161,5.764l-7.59,12.17a.193.193,0,0,1-.124.089Z" transform="translate(-326.308 -306.781)" fill="#263238"/>
      <g id="Сгруппировать_623" data-name="Сгруппировать 623" transform="translate(34.965 77.097)">
        <path id="Контур_180" data-name="Контур 180" d="M358.31,407.113c-.387-.217-7.118-1.826-7.207-1s-2.1,1.733-3.01,1.733-1.826-.731-2.008.364.82,1.188,1.64,1.277a17.145,17.145,0,0,0,3.652-.82,33.5,33.5,0,0,0,3.741,2.735,4.535,4.535,0,0,0,3.83-.182A2.45,2.45,0,0,0,358.31,407.113Z" transform="translate(-345.874 -405.685)" fill="#fff"/>
        <path id="Контур_181" data-name="Контур 181" d="M356.57,411.628a4.255,4.255,0,0,1-1.83-.36,30.776,30.776,0,0,1-3.7-2.708,15.835,15.835,0,0,1-3.629.8,2.308,2.308,0,0,1-1.636-.584,1.161,1.161,0,0,1-.174-.917.905.905,0,0,1,.352-.654,1.359,1.359,0,0,1,1.075,0,3.286,3.286,0,0,0,.774.128c.855,0,2.743-.874,2.816-1.547a.387.387,0,0,1,.217-.29c1.029-.53,6.963.983,7.273,1.161h0a2.658,2.658,0,0,1,1.582,2.147,2.836,2.836,0,0,1-.917,2.279A3.868,3.868,0,0,1,356.57,411.628Zm-5.485-3.462a.194.194,0,0,1,.124.046,33.254,33.254,0,0,0,3.7,2.708,4.343,4.343,0,0,0,3.625-.162,2.449,2.449,0,0,0,.774-1.934,2.291,2.291,0,0,0-1.381-1.841h0c-.557-.3-6.487-1.59-6.928-1.126-.1.959-2.255,1.88-3.191,1.88a3.661,3.661,0,0,1-.863-.139c-.317-.077-.615-.151-.774-.05a.569.569,0,0,0-.182.387.774.774,0,0,0,.1.619c.236.313.82.387,1.335.429a15.572,15.572,0,0,0,3.605-.808Z" transform="translate(-345.574 -405.38)" fill="#263238"/>
      </g>
      <g id="Сгруппировать_624" data-name="Сгруппировать 624" transform="translate(37.087 76.716)">
        <path id="Контур_182" data-name="Контур 182" d="M355.475,405.419s-2.553-.731-3.095-.456-.82,5.749-.82,5.749.275.545.82,0a37.846,37.846,0,0,0,2.375-4.642" transform="translate(-351.366 -404.706)" fill="#fff"/>
        <path id="Контур_183" data-name="Контур 183" d="M351.62,410.82h-.089a.658.658,0,0,1-.453-.34.189.189,0,0,1-.019-.1c.1-2.085.387-5.629.925-5.911s2.8.317,3.234.445a.2.2,0,1,1-.108.387,8.4,8.4,0,0,0-2.956-.468c-.275.248-.58,2.994-.712,5.524a.244.244,0,0,0,.143.1.516.516,0,0,0,.34-.186,33.67,33.67,0,0,0,2.321-4.584.193.193,0,0,1,.352.159,35.327,35.327,0,0,1-2.414,4.7.859.859,0,0,1-.565.271Z" transform="translate(-351.059 -404.397)" fill="#263238"/>
      </g>
      <g id="Сгруппировать_625" data-name="Сгруппировать 625" transform="translate(37.85 77.213)">
        <path id="Контур_184" data-name="Контур 184" d="M357.973,406.392s-2.642-.638-3.191.364-1.934,5.474-.82,5.66,1.458-1.269,1.458-1.269l1.733-3.191,1.188-.182" transform="translate(-353.343 -405.994)" fill="#fff"/>
        <path id="Контур_185" data-name="Контур 185" d="M353.839,412.311a1.337,1.337,0,0,1-.221,0,.6.6,0,0,1-.449-.356c-.538-1.122.623-4.708,1.13-5.605.6-1.1,3.122-.53,3.408-.46a.2.2,0,1,1-.089.387c-.7-.166-2.584-.445-2.975.267-.53.963-1.547,4.364-1.122,5.23.054.112.116.135.163.143.925.159,1.226-1.083,1.238-1.133a.19.19,0,0,1,0-.046l1.733-3.191a.194.194,0,0,1,.139-.1l1.188-.182a.2.2,0,1,1,.058.387l-1.091.166-1.675,3.095C355.158,411.421,354.7,412.311,353.839,412.311Z" transform="translate(-353.031 -405.68)" fill="#263238"/>
      </g>
      <g id="Сгруппировать_626" data-name="Сгруппировать 626" transform="translate(38.221 77.963)">
        <path id="Контур_186" data-name="Контур 186" d="M359.395,408.4s-1.277-.545-1.934-.089-3.559,5.106-3.01,5.292,1.822.089,2.008-.275,2.553-3.482,2.553-3.482" transform="translate(-354.23 -407.932)" fill="#fff"/>
        <path id="Контур_187" data-name="Контур 187" d="M354.96,413.57a2.672,2.672,0,0,1-.774-.1.294.294,0,0,1-.193-.248c-.128-.851,2.6-4.986,3.153-5.385.72-.514,2.046.046,2.1.07a.193.193,0,1,1-.151.356c-.329-.139-1.277-.429-1.725-.108-.557.387-2.99,4.3-3,4.971a2.468,2.468,0,0,0,1.714-.2c.19-.387,2.321-3.191,2.573-3.513a.195.195,0,0,1,.309.236c-.948,1.25-2.406,3.2-2.534,3.451C356.237,413.438,355.564,413.57,354.96,413.57Z" transform="translate(-353.989 -407.62)" fill="#263238"/>
      </g>
      <g id="Сгруппировать_627" data-name="Сгруппировать 627" transform="translate(39.477 78.993)">
        <path id="Контур_188" data-name="Контур 188" d="M362.365,411.581s-1.184-1.1-1.818-.712-3.284,3.83-2.735,4.193.913,0,1.458-.727a6.385,6.385,0,0,1,1.369-1.277l1.095.364" transform="translate(-357.544 -410.591)" fill="#fff"/>
        <path id="Контур_189" data-name="Контур 189" d="M357.919,415.09a.937.937,0,0,1-.518-.178.387.387,0,0,1-.162-.348c0-.909,2.294-3.8,2.9-4.17.739-.453,1.934.611,2.05.735a.193.193,0,0,1-.263.282c-.279-.259-1.161-.944-1.586-.689-.646.387-2.882,3.451-2.708,3.868.352.228.588.093,1.18-.7a6.576,6.576,0,0,1,1.416-1.319.2.2,0,0,1,.17-.023l1.095.364a.193.193,0,0,1-.12.367l-1-.333a6.191,6.191,0,0,0-1.25,1.184C358.778,414.594,358.406,415.09,357.919,415.09Z" transform="translate(-357.237 -410.282)" fill="#263238"/>
      </g>
      <g id="Сгруппировать_628" data-name="Сгруппировать 628" transform="translate(22.768 32.33)">
        <path id="Контур_190" data-name="Контур 190" d="M318.079,290.9a6.867,6.867,0,0,0-3.145,2.043c-.936,1.362.17,11.9.17,11.9l7.06-3.911,7.4,4.677s-.681-10.8-1.277-12.329-4.337-3.315-5.613-3.145S318.079,290.9,318.079,290.9Z" transform="translate(-314.358 -289.948)" fill="#4dd1cd"/>
        <path id="Контур_191" data-name="Контур 191" d="M329.244,305.52a.193.193,0,0,1-.1-.031l-7.3-4.615-6.963,3.868a.193.193,0,0,1-.286-.151c-.112-1.087-1.087-10.654-.135-12.031a7.123,7.123,0,0,1,3.246-2.116h.023c.035,0,3.335-.6,4.6-.774,1.358-.178,5.176,1.617,5.8,3.265.6,1.547,1.261,11.946,1.288,12.379a.193.193,0,0,1-.193.2Zm-7.4-5.064a.2.2,0,0,1,.1.031l7.075,4.476c-.128-1.934-.723-10.565-1.238-11.892-.565-1.455-4.217-3.191-5.416-3.025s-4.348.72-4.573.774a6.678,6.678,0,0,0-3.033,1.965c-.712,1.033-.143,8.375.174,11.482l6.82-3.787A.193.193,0,0,1,321.848,300.456Z" transform="translate(-314.042 -289.658)" fill="#263238"/>
      </g>
      <g id="Сгруппировать_629" data-name="Сгруппировать 629" transform="translate(25.286 27.155)">
        <path id="Контур_192" data-name="Контур 192" d="M293.77,217.115v9.779l4.677,12.584,4-12.839V217.03Z" transform="translate(-293.585 -216.848)" fill="#fff"/>
        <path id="Контур_193" data-name="Контур 193" d="M325.414,299.1a.194.194,0,0,1-.182-.128l-4.677-12.584a.193.193,0,0,1,0-.066v-9.768a.193.193,0,0,1,.193-.193l8.673-.085a.205.205,0,0,1,.139.054.193.193,0,0,1,.058.139v9.609a.2.2,0,0,1,0,.058L325.6,298.969a.193.193,0,0,1-.178.135Zm-4.484-12.812,4.468,12.019,3.838-12.271v-9.385l-8.286.081Z" transform="translate(-320.553 -276.28)" fill="#263238"/>
      </g>
      <g id="Сгруппировать_630" data-name="Сгруппировать 630" transform="translate(25.27 27.162)">
        <path id="Контур_194" data-name="Контур 194" d="M321,280.3a7.826,7.826,0,0,0,4.507,1.42h0a7.815,7.815,0,0,0,4.166-1.2V276.7l-8.673.116Z" transform="translate(-320.81 -276.545)" fill="#263238"/>
        <path id="Контур_195" data-name="Контур 195" d="M325.195,281.685a7.973,7.973,0,0,1-4.6-1.455.193.193,0,0,1-.081-.159V276.59a.193.193,0,0,1,.19-.193l8.673-.1a.209.209,0,0,1,.139.054.193.193,0,0,1,.058.139v3.818a.193.193,0,0,1-.089.162,8,8,0,0,1-4.255,1.23Zm-4.3-1.714a7.59,7.59,0,0,0,4.3,1.327h.019a7.61,7.61,0,0,0,3.966-1.115v-3.516l-8.286.093Z" transform="translate(-320.51 -276.3)" fill="#263238"/>
      </g>
      <g id="Сгруппировать_631" data-name="Сгруппировать 631" transform="translate(20.515 1.72)">
        <path id="Контур_196" data-name="Контур 196" d="M317.989,239.24h0a7.88,7.88,0,0,1-7.88-7.876l-1.389-11.079A9.284,9.284,0,0,1,318,211h0a9.284,9.284,0,0,1,9.284,9.284l-1.439,11.064A7.876,7.876,0,0,1,317.989,239.24Z" transform="translate(-308.527 -210.818)" fill="#fff"/>
        <path id="Контур_197" data-name="Контур 197" d="M317.682,239.145h0a8.085,8.085,0,0,1-8.073-8.07l-1.389-11.056A9.478,9.478,0,0,1,327.176,220l-1.439,11.087A8.07,8.07,0,0,1,317.682,239.145Zm0-28.24A9.1,9.1,0,0,0,308.591,220l1.389,11.056a7.679,7.679,0,1,0,15.354,0l1.439-11.091a9.1,9.1,0,0,0-9.075-9.056Z" transform="translate(-308.22 -210.53)" fill="#263238"/>
      </g>
      <path id="Контур_198" data-name="Контур 198" d="M342.009,254.7a.193.193,0,0,1-.116-.039,3.351,3.351,0,0,0-4.166-.139.194.194,0,0,1-.248-.3,3.741,3.741,0,0,1,4.642.124.193.193,0,0,1-.116.348Z" transform="translate(-305.602 -235.145)" fill="#263238"/>
      <path id="Контур_199" data-name="Контур 199" d="M325.039,254.425a.194.194,0,0,1-.1-.031,2.859,2.859,0,0,0-1.88-.426.195.195,0,1,1-.046-.387,3.246,3.246,0,0,1,2.135.48.193.193,0,0,1-.1.356Z" transform="translate(-296.667 -235.192)" fill="#263238"/>
      <path id="Контур_200" data-name="Контур 200" d="M343.048,245.868a.194.194,0,0,1-.163-.089,2.47,2.47,0,0,0-3.188-.9.194.194,0,1,1-.17-.348,2.913,2.913,0,0,1,3.683,1.041.193.193,0,0,1-.163.3Z" transform="translate(-306.834 -229.487)" fill="#263238"/>
      <path id="Контур_201" data-name="Контур 201" d="M331.593,267.54a1.745,1.745,0,0,1-1.021-.356.194.194,0,0,1,.24-.306,1.129,1.129,0,0,0,1.439,0,.194.194,0,0,1,.263.286,1.327,1.327,0,0,1-.921.375Z" transform="translate(-301.364 -243.329)" fill="#263238"/>
      <path id="Контур_202" data-name="Контур 202" d="M330.167,271.811a3.915,3.915,0,0,1-1.822-.549.193.193,0,0,1,.221-.309s1.76,1.064,2.735.031a.194.194,0,1,1,.282.267A1.857,1.857,0,0,1,330.167,271.811Z" transform="translate(-300.012 -245.841)" fill="#263238"/>
      <path id="Контур_203" data-name="Контур 203" d="M317.959,218s-7.768,7.172-9.934,12.379A14,14,0,0,0,309,242.63c1.2,1.571,1.934,1.791,1.934,1.791a5.764,5.764,0,0,1-6.8-2.538c-2.689-4.108-2.019-8.743-1.2-11.954s.6-12.627,2.464-15.764,4.557-5.455,9.041-4.932a9.784,9.784,0,0,1,8.29,5.752c1.42,2.913.747,7.845,1.2,10.012s2.391,8.665,2.839,12.549-4.847,6.669-5.683,7.044a4.971,4.971,0,0,1-1.791.387s1.791-8.963,2.166-14.12.4-8.22.4-8.22S318.334,218.22,317.959,218Z" transform="translate(-284.02 -207.97)" fill="#263238"/>
      <g id="Сгруппировать_633" data-name="Сгруппировать 633" transform="translate(18.191 1.189)" clip-path="url(#clip-path-6)">
        <g id="Сгруппировать_632" data-name="Сгруппировать 632" transform="translate(-2.093 0.248)">
          <path id="Контур_204" data-name="Контур 204" d="M302.917,249.6c-2.112-7.118,0-14.012,6.426-21.075,6.5-7.126,7.466-9.671,7.474-9.7l.364.132c-.039.1-1.006,2.646-7.551,9.83-6.34,6.963-8.414,13.729-6.34,20.7Z" transform="translate(-300.066 -215.337)" fill="#707070"/>
          <path id="Контур_205" data-name="Контур 205" d="M297.14,229.237l-.34-.186a42.27,42.27,0,0,1,7.041-9.431c4.449-4.456,8.1-7.493,8.124-7.52l.248.3c-.035.031-3.675,3.052-8.124,7.5a41.889,41.889,0,0,0-6.948,9.342Z" transform="translate(-296.8 -211.211)" fill="#707070"/>
          <path id="Контур_206" data-name="Контур 206" d="M346.923,254.481l-.29-.255c5.191-5.942,3.431-22.781,1.973-25.706s-4.224-7.954-4.255-8l.34-.186c.027.05,2.774,5.029,4.255,8.019S352.2,248.442,346.923,254.481Z" transform="translate(-325.955 -216.257)" fill="#707070"/>
          <rect id="Прямоугольник_373" data-name="Прямоугольник 373" width="0.387" height="8.631" transform="matrix(0.991, -0.135, 0.135, 0.991, 16.495, 0.052)" fill="#707070"/>
        </g>
      </g>
      <path id="Контур_208" data-name="Контур 208" d="M318.988,244.921a.193.193,0,0,1-.19-.232c0-.089,1.791-9.01,2.162-14.1.34-4.673.387-7.66.387-8.124-1.234-1.547-3.176-3.926-3.7-4.449-1.01.952-7.787,7.447-9.76,12.213a13.764,13.764,0,0,0,.948,12.066c1.126,1.482,1.83,1.721,1.838,1.725a.192.192,0,0,1,.012.364,6,6,0,0,1-7.029-2.611c-2.093-3.2-2.491-7.157-1.222-12.108a40.5,40.5,0,0,0,.642-5.5c.306-3.9.65-8.313,1.845-10.317,2.286-3.838,5.3-5.482,9.23-5.029a10.009,10.009,0,0,1,8.441,5.861c.936,1.934.983,4.716,1.017,6.963a19.079,19.079,0,0,0,.193,3.095c.139.669.426,1.776.774,3.06a81.69,81.69,0,0,1,2.081,9.5c.5,4.344-5.733,7.2-5.8,7.222a5.153,5.153,0,0,1-1.865.387Zm-1.335-27.369a.194.194,0,0,1,.1.027c.387.232,3.358,3.946,3.95,4.689a.193.193,0,0,1,.043.124c0,.031-.027,3.13-.387,8.232-.337,4.642-1.834,12.425-2.12,13.9a4.758,4.758,0,0,0,1.478-.36c.054-.027,6.027-2.824,5.567-6.824a81.282,81.282,0,0,0-2.073-9.455c-.337-1.288-.623-2.4-.774-3.095a19.189,19.189,0,0,1-.2-3.168c-.035-2.209-.081-4.956-.979-6.8a9.643,9.643,0,0,0-8.124-5.644c-3.83-.445-6.623,1.095-8.851,4.839-1.161,1.934-1.489,6.3-1.791,10.151a40.167,40.167,0,0,1-.65,5.563c-1.242,4.839-.859,8.7,1.161,11.8a5.511,5.511,0,0,0,6.139,2.592,7.234,7.234,0,0,1-1.594-1.621,14.208,14.208,0,0,1-.994-12.445c2.159-5.207,9.9-12.379,9.981-12.468A.194.194,0,0,1,317.653,217.551Z" transform="translate(-283.714 -207.72)" fill="#263238"/>
      <g id="Сгруппировать_634" data-name="Сгруппировать 634" transform="translate(17.444 14.837)">
        <rect id="Прямоугольник_374" data-name="Прямоугольник 374" width="3.435" height="6.874" rx="1.718" transform="translate(0.209 0.193)" fill="#fff"/>
        <path id="Контур_209" data-name="Контур 209" d="M302.779,251.7h-1.161a1.338,1.338,0,0,1-1.338-1.338v-4.584a1.339,1.339,0,0,1,1.339-1.338h1.161a1.338,1.338,0,0,1,1.339,1.338v4.584a1.338,1.338,0,0,1-1.338,1.338Zm-1.161-6.874a.952.952,0,0,0-.952.952v4.584a.952.952,0,0,0,.952.952h1.161a.952.952,0,0,0,.952-.952v-4.584a.952.952,0,0,0-.952-.952Z" transform="translate(-300.28 -244.44)" fill="#263238"/>
      </g>
      <g id="Сгруппировать_635" data-name="Сгруппировать 635" transform="translate(38.434 14.837)">
        <rect id="Прямоугольник_375" data-name="Прямоугольник 375" width="3.435" height="6.874" rx="1.718" transform="translate(0.213 0.193)" fill="#fff"/>
        <path id="Контур_210" data-name="Контур 210" d="M357.039,251.7h-1.161a1.338,1.338,0,0,1-1.338-1.338v-4.584a1.338,1.338,0,0,1,1.338-1.338h1.161a1.339,1.339,0,0,1,1.339,1.338v4.584a1.338,1.338,0,0,1-1.338,1.338Zm-1.161-6.874a.952.952,0,0,0-.952.952v4.584a.952.952,0,0,0,.952.952h1.161a.952.952,0,0,0,.952-.952v-4.584a.952.952,0,0,0-.952-.952Z" transform="translate(-354.54 -244.44)" fill="#263238"/>
      </g>
      <path id="Контур_211" data-name="Контур 211" d="M325.5,221.116h-.774v-3.737a10.52,10.52,0,1,0-21.041,0v3.737h-.774v-3.737a11.294,11.294,0,1,1,22.588,0Z" transform="translate(-284.449 -206.085)" fill="#263238"/>
      <path id="Контур_212" data-name="Контур 212" d="M346.09,267.756a.2.2,0,1,1-.062-.387,6.86,6.86,0,0,0,4.928-5.106.19.19,0,0,1,.217-.166.193.193,0,0,1,.166.217,7.251,7.251,0,0,1-5.191,5.416Z" transform="translate(-310.786 -240.427)" fill="#263238"/>
      <path id="Контур_213" data-name="Контур 213" d="M338.606,276.423a1.315,1.315,0,0,1-1.323-.731.983.983,0,0,1,.054-.774,2.166,2.166,0,0,1,1.284-1.021,2.247,2.247,0,0,1,1.675.031.967.967,0,0,1,.511.557,1.013,1.013,0,0,1-.074.774,2.174,2.174,0,0,1-1.273,1.006,2.708,2.708,0,0,1-.855.159Zm.87-2.286a2.321,2.321,0,0,0-.731.124,1.8,1.8,0,0,0-1.056.82.611.611,0,0,0-.043.476c.166.449.925.607,1.69.352a1.783,1.783,0,0,0,1.048-.809.65.65,0,0,0,.054-.491h0a.584.584,0,0,0-.317-.333,1.451,1.451,0,0,0-.661-.139Z" transform="translate(-305.491 -247.574)" fill="#263238"/>
    </g>
    <g id="freepik--character-1--inject-16" transform="translate(14.112 56.366)">
      <g id="Сгруппировать_636" data-name="Сгруппировать 636" transform="translate(14.704 31.964)">
        <path id="Контур_214" data-name="Контур 214" d="M91,228.388,75.02,236.005l4.611,45.172H111.5L116,235.255l-15.021-6.975Z" transform="translate(-74.826 -228.094)" fill="#4dd1cd"/>
        <path id="Контур_215" data-name="Контур 215" d="M138.448,340.8H106.583a.193.193,0,0,1-.193-.174l-4.611-45.18a.193.193,0,0,1,.108-.193l15.984-7.617a.193.193,0,0,1,.081,0l9.977-.108a.2.2,0,0,1,.085,0l15.021,6.963a.193.193,0,0,1,.112.193l-4.507,45.942a.193.193,0,0,1-.193.174Zm-31.69-.387H138.27l4.476-45.613-14.855-6.9-9.892.108-15.822,7.54Z" transform="translate(-101.778 -287.518)" fill="#263238"/>
      </g>
      <circle id="Эллипс_6" data-name="Эллипс 6" cx="0.542" cy="0.542" r="0.542" transform="translate(36.748 44.959)" fill="#263238"/>
      <path id="Контур_216" data-name="Контур 216" d="M159.843,330.052a.542.542,0,1,1-.542-.542h0A.542.542,0,0,1,159.843,330.052Z" transform="translate(-122.012 -281.301)" fill="#263238"/>
      <g id="Сгруппировать_637" data-name="Сгруппировать 637" transform="translate(30.175 25.861)">
        <path id="Контур_217" data-name="Контур 217" d="M127.474,221.006l-4.367,4.87-1.865,4.731-2.008-4.8-4.224-4.8V212.48h12.464Z" transform="translate(-114.817 -212.302)" fill="#fff"/>
        <path id="Контур_218" data-name="Контур 218" d="M148.2,290.239a.193.193,0,0,1-.178-.12l-2-4.77-4.205-4.778a.193.193,0,0,1-.046-.128v-8.511a.193.193,0,0,1,.193-.193h12.464a.193.193,0,0,1,.193.193v8.511a.194.194,0,0,1-.05.128l-4.344,4.847-1.853,4.7a.193.193,0,0,1-.178.124Zm-6.039-9.868,4.178,4.747a.2.2,0,0,1,.035.054l1.822,4.36,1.691-4.286a.193.193,0,0,1,.035-.058l4.321-4.836v-8.24H142.157Zm12.271.073Z" transform="translate(-141.77 -271.74)" fill="#263238"/>
      </g>
      <g id="Сгруппировать_638" data-name="Сгруппировать 638" transform="translate(30.179 25.845)">
        <path id="Контур_219" data-name="Контур 219" d="M142.27,275.991a8.75,8.75,0,0,0,6.77,3.191h0a8.727,8.727,0,0,0,5.694-2.1V272.2H142.27Z" transform="translate(-142.08 -272.007)" fill="#263238"/>
        <path id="Контур_220" data-name="Контур 220" d="M148.728,279.069a8.9,8.9,0,0,1-6.905-3.261.193.193,0,0,1-.043-.124v-3.791a.193.193,0,0,1,.193-.193h12.464a.193.193,0,0,1,.193.193v4.878a.193.193,0,0,1-.066.147,8.925,8.925,0,0,1-5.8,2.151Zm-6.576-3.455a8.511,8.511,0,0,0,6.576,3.068h.023a8.538,8.538,0,0,0,5.493-2v-4.6H142.163Z" transform="translate(-141.78 -271.7)" fill="#263238"/>
      </g>
      <g id="Сгруппировать_639" data-name="Сгруппировать 639" transform="translate(28.167 1.977)">
        <rect id="Прямоугольник_376" data-name="Прямоугольник 376" width="17.555" height="28.445" rx="8.778" transform="translate(0.193 0.201)" fill="#fff"/>
        <path id="Контур_221" data-name="Контур 221" d="M146.414,238.839h-1.741a8.1,8.1,0,0,1-8.093-8.093V218.1a8.1,8.1,0,0,1,8.093-8.1h1.741a8.1,8.1,0,0,1,8.124,8.1v12.646a8.1,8.1,0,0,1-8.124,8.093Zm-1.741-28.453a7.714,7.714,0,0,0-7.706,7.706v12.646a7.714,7.714,0,0,0,7.706,7.706h1.741a7.714,7.714,0,0,0,7.737-7.7V218.1a7.714,7.714,0,0,0-7.737-7.714Z" transform="translate(-136.58 -210)" fill="#263238"/>
      </g>
      <path id="Контур_222" data-name="Контур 222" d="M158.513,250.51a.936.936,0,0,1-.456-.116,1.737,1.737,0,0,1-.727-1.13.2.2,0,1,1,.387-.1,1.393,1.393,0,0,0,.538.89.642.642,0,0,0,.511.031,1.122,1.122,0,0,0,.75-1.037l.259-6.22a.193.193,0,0,1,.387,0l-.259,6.217a1.513,1.513,0,0,1-1.017,1.393A1.223,1.223,0,0,1,158.513,250.51Z" transform="translate(-121.131 -228.03)" fill="#263238"/>
      <g id="Сгруппировать_640" data-name="Сгруппировать 640" transform="translate(33.546 23.253)">
        <path id="Контур_223" data-name="Контур 223" d="M151,265.53h6.963s-1.219,2.654-3.582,2.654S151,265.53,151,265.53Z" transform="translate(-150.8 -265.325)" fill="#263238"/>
        <path id="Контур_224" data-name="Контур 224" d="M154.064,268.052c-2.468,0-3.516-2.665-3.563-2.778a.193.193,0,0,1,.182-.275h6.963a.193.193,0,0,1,.174.275C157.77,265.387,156.525,268.052,154.064,268.052ZM150.97,265.4a3.733,3.733,0,0,0,3.095,2.267c1.783,0,2.878-1.609,3.261-2.267Z" transform="translate(-150.484 -265)" fill="#263238"/>
      </g>
      <g id="Сгруппировать_641" data-name="Сгруппировать 641" transform="translate(33.544 23.253)">
        <path id="Контур_225" data-name="Контур 225" d="M151.5,266.462h5.865a5.714,5.714,0,0,0,.58-.932H151A5.071,5.071,0,0,0,151.5,266.462Z" transform="translate(-150.798 -265.325)" fill="#fff"/>
        <path id="Контур_226" data-name="Контур 226" d="M157.04,266.33h-5.865a.193.193,0,0,1-.162-.085,5.3,5.3,0,0,1-.515-.967.193.193,0,0,1,.182-.279h6.94a.193.193,0,0,1,.174.279,5.942,5.942,0,0,1-.6.963A.193.193,0,0,1,157.04,266.33Zm-5.76-.387h5.663a5.586,5.586,0,0,0,.356-.545h-6.321a4.895,4.895,0,0,0,.3.545Z" transform="translate(-150.479 -265)" fill="#263238"/>
      </g>
      <ellipse id="Эллипс_7" data-name="Эллипс 7" cx="0.503" cy="1.184" rx="0.503" ry="1.184" transform="translate(33.161 15.219)" fill="#263238"/>
      <ellipse id="Эллипс_8" data-name="Эллипс 8" cx="0.503" cy="1.184" rx="0.503" ry="1.184" transform="translate(40.682 15.219)" fill="#263238"/>
      <path id="Контур_227" data-name="Контур 227" d="M169.512,239.247a.193.193,0,0,1-.128-.05,2.877,2.877,0,0,0-3.424-.627.194.194,0,1,1-.205-.329,3.286,3.286,0,0,1,3.868.665.193.193,0,0,1-.128.337Z" transform="translate(-126.246 -225.124)" fill="#263238"/>
      <g id="Сгруппировать_642" data-name="Сгруппировать 642" transform="translate(28.187 1.977)">
        <path id="Контур_228" data-name="Контур 228" d="M145.858,210.52h0a8.778,8.778,0,0,0-8.778,8.778h0v8h.774V224a18.072,18.072,0,0,0,7.81-2.29,11.111,11.111,0,0,0,5.311-6.027s.932,4.514,1.934,5.373l1.006.859v5.447h.716V219.3A8.778,8.778,0,0,0,145.858,210.52Z" transform="translate(-136.906 -210.319)" fill="#263238"/>
        <path id="Контур_229" data-name="Контур 229" d="M154.355,227.234h-.716a.193.193,0,0,1-.193-.193v-5.358l-.936-.8c-.812-.7-1.547-3.54-1.853-4.836a11.5,11.5,0,0,1-5.157,5.513,18.921,18.921,0,0,1-7.71,2.321v3.095a.193.193,0,0,1-.193.193h-.774a.193.193,0,0,1-.193-.193v-8A8.983,8.983,0,0,1,145.582,210h0a8.983,8.983,0,0,1,8.986,8.979v8.043a.193.193,0,0,1-.213.213Zm-.522-.387h.348v-7.868a8.583,8.583,0,1,0-17.166,0l0,7.8h.387v-3.095a.193.193,0,0,1,.193-.193,18.066,18.066,0,0,0,7.737-2.267,10.925,10.925,0,0,0,5.2-5.911.178.178,0,0,1,.193-.139.193.193,0,0,1,.182.155c.255,1.238,1.091,4.6,1.872,5.265l1.006.859a.193.193,0,0,1,.07.147Z" transform="translate(-136.63 -210)" fill="#263238"/>
      </g>
      <g id="Сгруппировать_643" data-name="Сгруппировать 643" transform="translate(24.945 14.526)">
        <path id="Контур_230" data-name="Контур 230" d="M130.328,242.94h1.644v6.518h-1.644a1.578,1.578,0,0,1-1.578-1.578h0v-3.369a1.578,1.578,0,0,1,1.578-1.571Z" transform="translate(-128.557 -242.747)" fill="#fff"/>
        <path id="Контур_231" data-name="Контур 231" d="M131.666,249.345h-1.644a1.776,1.776,0,0,1-1.772-1.772V244.2a1.776,1.776,0,0,1,1.772-1.764h1.644a.193.193,0,0,1,.193.193v6.518A.193.193,0,0,1,131.666,249.345Zm-1.644-6.518a1.389,1.389,0,0,0-1.385,1.377v3.369a1.385,1.385,0,0,0,1.385,1.385h1.451v-6.132Z" transform="translate(-128.25 -242.44)" fill="#263238"/>
      </g>
      <g id="Сгруппировать_644" data-name="Сгруппировать 644" transform="translate(45.618 14.526)">
        <path id="Контур_232" data-name="Контур 232" d="M183.834,249.458H182.19V242.94h1.644a1.578,1.578,0,0,1,1.578,1.578h0v3.369A1.578,1.578,0,0,1,183.834,249.458Z" transform="translate(-181.997 -242.747)" fill="#fff"/>
        <path id="Контур_233" data-name="Контур 233" d="M183.528,249.345h-1.644a.193.193,0,0,1-.193-.193v-6.518a.193.193,0,0,1,.193-.193h1.644a1.776,1.776,0,0,1,1.764,1.764v3.369A1.776,1.776,0,0,1,183.528,249.345Zm-1.451-.387h1.451a1.389,1.389,0,0,0,1.385-1.377V244.2a1.385,1.385,0,0,0-1.385-1.385h-1.451Z" transform="translate(-181.69 -242.44)" fill="#263238"/>
      </g>
      <path id="Контур_234" data-name="Контур 234" d="M153.522,219.61h-.774v-4.159a9.787,9.787,0,1,0-19.574,0v4.159H132.4v-4.159a10.561,10.561,0,1,1,21.122,0Z" transform="translate(-105.85 -204.89)" fill="#263238"/>
      <path id="Контур_235" data-name="Контур 235" d="M172.12,265.106a.2.2,0,0,1-.062-.387,7.126,7.126,0,0,0,5.1-5.288.2.2,0,0,1,.387.05,7.5,7.5,0,0,1-5.362,5.605Z" transform="translate(-130.065 -238.228)" fill="#263238"/>
      <path id="Контур_236" data-name="Контур 236" d="M164.407,274.072a1.853,1.853,0,0,1-.8-.166,1.045,1.045,0,0,1-.557-.592c-.24-.689.387-1.5,1.381-1.861a2.256,2.256,0,0,1,1.694.019,1.017,1.017,0,0,1,.542.588c.236.689-.387,1.5-1.381,1.857A2.669,2.669,0,0,1,164.407,274.072Zm.913-2.387a2.32,2.32,0,0,0-.75.132c-.774.275-1.3.9-1.161,1.366a.677.677,0,0,0,.36.387,1.869,1.869,0,0,0,1.381,0c.774-.275,1.3-.9,1.161-1.366h0a.654.654,0,0,0-.344-.364A1.47,1.47,0,0,0,165.32,271.685Z" transform="translate(-124.611 -245.608)" fill="#263238"/>
      <g id="Сгруппировать_645" data-name="Сгруппировать 645" transform="translate(1.185 39.664)">
        <path id="Контур_237" data-name="Контур 237" d="M53.59,248.25,40.07,276.857l5.578,4.867,10.085-12.658Z" transform="translate(-39.877 -248.038)" fill="#4dd1cd"/>
        <path id="Контур_238" data-name="Контур 238" d="M72.6,341.3a.193.193,0,0,1-.128-.046L66.9,336.388a.193.193,0,0,1-.046-.228l13.52-28.627a.193.193,0,0,1,.368.062l2.143,20.816a.194.194,0,0,1-.043.139L72.753,341.228a.193.193,0,0,1-.135.073Zm-5.342-5.11,5.315,4.642L82.486,328.4l-2.05-20.054Z" transform="translate(-66.831 -307.422)" fill="#263238"/>
      </g>
      <path id="Контур_239" data-name="Контур 239" d="M74.805,283.261l-4.665-7.617.329-.205,3.13,5.11-2.867-9.667.371-.112Z" transform="translate(-57.129 -222.182)" fill="#263238"/>
      <g id="Сгруппировать_646" data-name="Сгруппировать 646" transform="translate(53.551 38.889)">
        <path id="Контур_240" data-name="Контур 240" d="M177.557,246.31l12.874,28.754-7.938,3.435-7.083-11.373Z" transform="translate(-175.227 -246.074)" fill="#4dd1cd"/>
        <path id="Контур_241" data-name="Контур 241" d="M209.471,338.038a.193.193,0,0,1-.162-.093l-7.083-11.373a.193.193,0,0,1-.027-.124l2.135-20.8a.2.2,0,0,1,.387-.058l12.874,28.747a.193.193,0,0,1-.1.255l-7.938,3.435a.2.2,0,0,1-.085.015Zm-6.882-11.605,6.963,11.176,7.605-3.292-12.5-27.919Z" transform="translate(-202.197 -305.419)" fill="#263238"/>
      </g>
      <g id="Сгруппировать_647" data-name="Сгруппировать 647" transform="translate(0 66.57)">
        <path id="Контур_242" data-name="Контур 242" d="M45.5,318.766,57.082,329.6l-3.219,3.756L37.02,322.909l1.934-5.149" transform="translate(-36.822 -317.564)" fill="#4dd1cd"/>
        <path id="Контур_243" data-name="Контур 243" d="M80.809,392.96a.194.194,0,0,1-.1-.031L63.857,382.481a.193.193,0,0,1-.077-.232l1.934-5.149a.194.194,0,0,1,.364.135l-1.88,5,16.569,10.279,2.99-3.482L72.306,378.326a.193.193,0,1,1,.263-.282l11.605,10.832a.193.193,0,0,1,0,.267L80.956,392.9a.193.193,0,0,1-.147.062Z" transform="translate(-63.767 -376.973)" fill="#263238"/>
      </g>
      <g id="Сгруппировать_648" data-name="Сгруппировать 648" transform="translate(16.388 76.335)">
        <path id="Контур_244" data-name="Контур 244" d="M108.377,404.142c.472-.255,8.367-2.147,8.476-1.161s2.468,2.039,3.54,2.039,2.147-.859,2.36.429-.963,1.393-1.934,1.5a19.758,19.758,0,0,1-4.29-.967,38.251,38.251,0,0,1-4.4,3.222,5.414,5.414,0,0,1-4.507-.217A2.9,2.9,0,0,1,108.377,404.142Z" transform="translate(-106.435 -402.512)" fill="#fff"/>
        <path id="Контур_245" data-name="Контур 245" d="M109.829,409.483a4.8,4.8,0,0,1-2.627-.65,3.238,3.238,0,0,1-1.064-2.623,3.1,3.1,0,0,1,1.845-2.53c.333-.178,7.35-1.934,8.511-1.342a.387.387,0,0,1,.236.313c.093.82,2.321,1.868,3.346,1.868a3.912,3.912,0,0,0,.917-.151,1.546,1.546,0,0,1,1.234,0,1.033,1.033,0,0,1,.387.747,1.319,1.319,0,0,1-.2,1.048,2.616,2.616,0,0,1-1.849.669h-.054a18.458,18.458,0,0,1-4.255-.944,36.068,36.068,0,0,1-4.356,3.18A4.82,4.82,0,0,1,109.829,409.483Zm5.923-6.917a37.6,37.6,0,0,0-7.582,1.451h0a2.773,2.773,0,0,0-1.64,2.22,2.863,2.863,0,0,0,.909,2.282,5.254,5.254,0,0,0,4.306.2,41.581,41.581,0,0,0,4.36-3.2.193.193,0,0,1,.182-.035,18.518,18.518,0,0,0,4.209.959h.058c.611-.066,1.3-.143,1.586-.518a.944.944,0,0,0,.124-.75.689.689,0,0,0-.228-.484c-.19-.128-.534-.043-.928.054a4.255,4.255,0,0,1-1.01.162c-1.087,0-3.605-1.068-3.733-2.209C116.293,402.6,116.073,402.566,115.752,402.566Zm-7.671,1.28Z" transform="translate(-106.131 -402.216)" fill="#263238"/>
      </g>
      <g id="Сгруппировать_649" data-name="Сгруппировать 649" transform="translate(25.423 75.851)">
        <path id="Контур_246" data-name="Контур 246" d="M130,402.137s3.006-.859,3.648-.534.967,6.758.967,6.758-.325.642-.967,0-2.785-5.489-2.785-5.489" transform="translate(-129.802 -401.312)" fill="#fff"/>
        <path id="Контур_247" data-name="Контур 247" d="M133.867,408.5a.979.979,0,0,1-.673-.34c-.662-.661-2.739-5.35-2.824-5.547a.194.194,0,0,1,.356-.155,39.677,39.677,0,0,0,2.747,5.416c.116.116.286.251.433.224a.333.333,0,0,0,.2-.139c-.155-3.017-.518-6.275-.863-6.538-.414-.209-2.367.228-3.5.549a.2.2,0,1,1-.1-.387c.515-.147,3.095-.863,3.787-.522s.975,4.952,1.072,6.921a.194.194,0,0,1-.019.1.739.739,0,0,1-.507.387Z" transform="translate(-129.487 -400.965)" fill="#263238"/>
      </g>
      <g id="Сгруппировать_650" data-name="Сгруппировать 650" transform="translate(23.506 76.436)">
        <path id="Контур_248" data-name="Контур 248" d="M125.449,403.287s3.095-.75,3.752.429,2.255,6.437.967,6.65-1.718-1.5-1.718-1.5l-2.039-3.756-1.393-.213" transform="translate(-124.83 -402.83)" fill="#fff"/>
        <path id="Контур_249" data-name="Контур 249" d="M129.655,410.228c-.986,0-1.524-1.033-1.683-1.64l-1.981-3.652-1.3-.2a.2.2,0,1,1,.058-.387l1.393.213a.193.193,0,0,1,.139.1l2.039,3.756a.194.194,0,0,1,0,.046c0,.062.387,1.547,1.5,1.358.058,0,.139-.039.209-.186.5-1.029-.7-5.087-1.315-6.19-.48-.863-2.708-.534-3.54-.337a.2.2,0,1,1-.093-.387c.333-.081,3.257-.75,3.965.522.561,1.01,1.934,5.257,1.323,6.538a.657.657,0,0,1-.5.387,1.509,1.509,0,0,1-.221.054Z" transform="translate(-124.529 -402.479)" fill="#263238"/>
      </g>
      <g id="Сгруппировать_651" data-name="Сгруппировать 651" transform="translate(22.861 77.342)">
        <path id="Контур_250" data-name="Контур 250" d="M123.35,405.644s1.5-.642,2.255-.1,4.186,6.008,3.54,6.236-2.147.108-2.36-.321-3.006-4.077-3.006-4.077" transform="translate(-123.161 -405.129)" fill="#fff"/>
        <path id="Контур_251" data-name="Контур 251" d="M127.976,411.771c-.692,0-1.474-.155-1.663-.542-.151-.3-1.868-2.584-2.986-4.046a.193.193,0,1,1,.306-.236c.286.387,2.812,3.675,3.025,4.108.132.263,1.408.449,2.077.24.05-.662-2.739-5.335-3.544-5.911-.542-.387-1.675-.043-2.066.124a.193.193,0,0,1-.151-.356c.066-.027,1.613-.677,2.445-.085.774.545,3.826,5.377,3.694,6.306a.317.317,0,0,1-.205.271,3.056,3.056,0,0,1-.932.128Z" transform="translate(-122.863 -404.819)" fill="#263238"/>
      </g>
      <g id="Сгруппировать_652" data-name="Сгруппировать 652" transform="translate(21.759 78.53)">
        <path id="Контур_252" data-name="Контур 252" d="M120.58,409.37s1.4-1.288,2.147-.859,3.868,4.507,3.219,4.936-1.075,0-1.718-.859a7.516,7.516,0,0,0-1.609-1.5l-1.288.429" transform="translate(-120.361 -408.217)" fill="#fff"/>
        <path id="Контур_253" data-name="Контур 253" d="M125.119,413.48c-.565,0-1-.58-1.393-1.1a7.311,7.311,0,0,0-1.485-1.408l-1.2.387a.194.194,0,0,1-.124-.368l1.288-.429a.193.193,0,0,1,.17.023,7.7,7.7,0,0,1,1.652,1.547c.716.959,1,1.118,1.458.816.259-.46-2.468-4.182-3.207-4.607-.515-.29-1.586.522-1.934.832a.193.193,0,1,1-.263-.282c.155-.143,1.524-1.369,2.375-.886.689.387,3.369,3.795,3.4,4.87a.422.422,0,0,1-.174.387A1.064,1.064,0,0,1,125.119,413.48Z" transform="translate(-120.015 -407.89)" fill="#263238"/>
      </g>
      <g id="Сгруппировать_653" data-name="Сгруппировать 653" transform="translate(51.885 63.784)">
        <path id="Контур_254" data-name="Контур 254" d="M177.923,311.618l-6.793,14.337,4.371,2.309,12.847-13.613-3.687-4.081" transform="translate(-170.937 -310.37)" fill="#b12419"/>
        <path id="Контур_255" data-name="Контур 255" d="M202.455,387.861a.194.194,0,0,1-.089-.023l-4.371-2.321a.193.193,0,0,1-.085-.255l6.793-14.337a.193.193,0,1,1,.348.166l-6.731,14.182,4.077,2.155L215.02,374.05l-3.547-3.946a.193.193,0,1,1,.286-.259l3.687,4.081a.193.193,0,0,1,0,.263L202.6,387.8A.193.193,0,0,1,202.455,387.861Z" transform="translate(-197.891 -369.773)" fill="#263238"/>
      </g>
      <g id="Сгруппировать_654" data-name="Сгруппировать 654" transform="translate(40.889 76.329)">
        <path id="Контур_256" data-name="Контур 256" d="M184.348,404.142c-.472-.255-8.371-2.147-8.476-1.161s-2.468,2.039-3.544,2.039-2.143-.859-2.36.429.967,1.393,1.934,1.5a19.815,19.815,0,0,0,4.29-.967,38.254,38.254,0,0,0,4.4,3.222,5.414,5.414,0,0,0,4.507-.217A2.9,2.9,0,0,0,184.348,404.142Z" transform="translate(-169.759 -402.506)" fill="#fff"/>
        <path id="Контур_257" data-name="Контур 257" d="M182.3,409.473a4.82,4.82,0,0,1-2.081-.414,35.664,35.664,0,0,1-4.356-3.18,18.421,18.421,0,0,1-4.255.944h-.058a2.612,2.612,0,0,1-1.849-.673,1.315,1.315,0,0,1-.193-1.048,1.037,1.037,0,0,1,.387-.747,1.6,1.6,0,0,1,1.23,0,3.917,3.917,0,0,0,.921.151c1.014,0,3.261-1.045,3.35-1.865a.387.387,0,0,1,.232-.313c1.161-.611,8.193,1.161,8.511,1.342h0a3.112,3.112,0,0,1,1.841,2.53,3.242,3.242,0,0,1-1.068,2.627A4.822,4.822,0,0,1,182.3,409.473Zm-6.395-4.008a.194.194,0,0,1,.124.046,38.667,38.667,0,0,0,4.36,3.2,5.224,5.224,0,0,0,4.306-.2,2.866,2.866,0,0,0,.913-2.286,2.773,2.773,0,0,0-1.64-2.217h0c-.658-.356-7.772-1.892-8.2-1.319-.12,1.133-2.638,2.2-3.733,2.2a4.257,4.257,0,0,1-1.014-.162c-.387-.1-.735-.182-.925-.054a.692.692,0,0,0-.232.487.936.936,0,0,0,.124.75c.282.387.975.453,1.586.522h.058a18.176,18.176,0,0,0,4.209-.959Z" transform="translate(-169.467 -402.2)" fill="#263238"/>
      </g>
      <g id="Сгруппировать_655" data-name="Сгруппировать 655" transform="translate(43.374 75.885)">
        <path id="Контур_258" data-name="Контур 258" d="M181.005,402.137s-3.006-.859-3.648-.534-.967,6.758-.967,6.758.321.642.967,0,2.789-5.489,2.789-5.489" transform="translate(-176.196 -401.346)" fill="#fff"/>
        <path id="Контур_259" data-name="Контур 259" d="M176.512,408.55h-.1a.735.735,0,0,1-.5-.387.193.193,0,0,1-.019-.1c.1-1.969.387-6.576,1.072-6.921s3.273.387,3.787.522a.2.2,0,0,1-.1.387c-1.133-.325-3.095-.774-3.509-.545-.34.259-.7,3.516-.859,6.534a.325.325,0,0,0,.2.139c.12.019.267-.062.437-.224a41.591,41.591,0,0,0,2.747-5.416.194.194,0,0,1,.356.155c-.089.2-2.166,4.89-2.828,5.547a.986.986,0,0,1-.673.306Z" transform="translate(-175.889 -401.054)" fill="#263238"/>
      </g>
      <g id="Сгруппировать_656" data-name="Сгруппировать 656" transform="translate(44.289 76.46)">
        <path id="Контур_260" data-name="Контур 260" d="M183.945,403.287s-3.095-.75-3.756.429-2.251,6.437-.963,6.665,1.714-1.5,1.714-1.5l2.039-3.756,1.4-.213" transform="translate(-178.55 -402.853)" fill="#fff"/>
        <path id="Контур_261" data-name="Контур 261" d="M179.159,410.28a1.509,1.509,0,0,1-.259-.023.669.669,0,0,1-.5-.406c-.592-1.246.735-5.5,1.323-6.542.712-1.273,3.64-.6,3.969-.522a.2.2,0,0,1-.093.387c-.82-.2-3.06-.526-3.544.337-.607,1.087-1.807,5.141-1.311,6.19.074.151.155.182.213.193,1.095.193,1.478-1.292,1.493-1.358a.2.2,0,0,1,0-.046l2.039-3.756a.193.193,0,0,1,.139-.1l1.4-.213a.2.2,0,0,1,.058.387l-1.3.2-1.981,3.652C180.667,409.247,180.137,410.28,179.159,410.28Z" transform="translate(-178.256 -402.539)" fill="#263238"/>
      </g>
      <g id="Сгруппировать_657" data-name="Сгруппировать 657" transform="translate(44.689 77.347)">
        <path id="Контур_262" data-name="Контур 262" d="M185.676,405.644s-1.5-.642-2.251-.1-4.2,6.008-3.551,6.236,2.143.108,2.36-.321,3-4.077,3-4.077" transform="translate(-179.598 -405.135)" fill="#fff"/>
        <path id="Контур_263" data-name="Контур 263" d="M180.431,411.779a3.049,3.049,0,0,1-.932-.12.317.317,0,0,1-.205-.271c-.132-.925,2.944-5.76,3.706-6.306.832-.6,2.375.054,2.441.085a.193.193,0,0,1-.151.356c-.387-.166-1.52-.514-2.062-.124-.692.5-3.629,5.2-3.555,5.911a2.785,2.785,0,0,0,2.077-.24c.217-.433,2.735-3.733,3.021-4.108a.193.193,0,0,1,.306.236c-.774,1.01-2.812,3.706-2.983,4.046S181.112,411.779,180.431,411.779Z" transform="translate(-179.289 -404.833)" fill="#263238"/>
      </g>
      <g id="Сгруппировать_658" data-name="Сгруппировать 658" transform="translate(46.184 78.552)">
        <path id="Контур_264" data-name="Контур 264" d="M189.105,409.37s-1.4-1.288-2.147-.859-3.868,4.507-3.219,4.936,1.072,0,1.718-.859a7.515,7.515,0,0,1,1.609-1.5l1.288.429" transform="translate(-183.459 -408.239)" fill="#fff"/>
        <path id="Контур_265" data-name="Контур 265" d="M183.915,413.514a1.056,1.056,0,0,1-.584-.2.422.422,0,0,1-.174-.387c.035-1.079,2.708-4.476,3.4-4.87.847-.487,2.221.743,2.375.886a.193.193,0,1,1-.263.282c-.337-.309-1.408-1.126-1.934-.832a11.441,11.441,0,0,0-1.988,2.29c-1.161,1.613-1.265,2.232-1.215,2.321.449.294.735.135,1.451-.82a7.737,7.737,0,0,1,1.656-1.547.194.194,0,0,1,.17-.023l1.288.429a.194.194,0,0,1-.124.368l-1.2-.387a7.35,7.35,0,0,0-1.489,1.412C184.913,412.938,184.479,413.514,183.915,413.514Z" transform="translate(-183.154 -407.946)" fill="#263238"/>
      </g>
    </g>
    <g id="freepik--text-balloon--inject-16" transform="translate(60.255 41.857)">
      <g id="Сгруппировать_659" data-name="Сгруппировать 659">
        <path id="Контур_266" data-name="Контур 266" d="M212.833,168.21H187.688a4.4,4.4,0,0,0-4.4,4.395v7.35a4.4,4.4,0,0,0,4.375,4.422h3.095l-4.22,5.52,9.5-5.52h16.789a4.4,4.4,0,0,0,4.387-4.41h0v-7.35A4.4,4.4,0,0,0,212.833,168.21Z" transform="translate(-183.093 -168.028)" fill="#fff"/>
        <path id="Контур_267" data-name="Контур 267" d="M185.5,190.278l4.576-5.985h-2.708a4.6,4.6,0,0,1-4.584-4.615v-7.35a4.6,4.6,0,0,1,4.592-4.588h25.145a4.6,4.6,0,0,1,4.584,4.588v7.35a4.592,4.592,0,0,1-4.58,4.6H195.782Zm4.967-6.371h.387l-3.868,5.056,8.689-5.056h16.843a4.205,4.205,0,0,0,4.193-4.217v-7.35a4.209,4.209,0,0,0-4.193-4.213H187.368a4.209,4.209,0,0,0-4.205,4.2v7.35a4.209,4.209,0,0,0,4.19,4.217Z" transform="translate(-182.78 -167.74)" fill="#263238"/>
      </g>
      <path id="Контур_268" data-name="Контур 268" d="M214.98,188.791a1.025,1.025,0,1,1-1.029-1.021h0a1.025,1.025,0,0,1,1.029,1.021Z" transform="translate(-201.267 -180.021)" fill="#263238"/>
      <path id="Контур_269" data-name="Контур 269" d="M226.54,188.791a1.025,1.025,0,1,1-1.029-1.021h0a1.021,1.021,0,0,1,1.029,1.021Z" transform="translate(-208.355 -180.021)" fill="#263238"/>
      <path id="Контур_270" data-name="Контур 270" d="M238.113,188.791a1.021,1.021,0,1,1-1.021-1.021h0A1.021,1.021,0,0,1,238.113,188.791Z" transform="translate(-215.455 -180.021)" fill="#263238"/>
    </g>
    <g id="freepik--device-2--inject-16" transform="translate(94.44 106.857)">
      <g id="Сгруппировать_660" data-name="Сгруппировать 660" transform="translate(0 33.199)">
        <rect id="Прямоугольник_377" data-name="Прямоугольник 377" width="46.863" height="1.892" transform="translate(0.193 0.193)" fill="#fff"/>
        <path id="Контур_271" data-name="Контур 271" d="M317.866,423.509H271a.193.193,0,0,1-.193-.193v-1.892a.193.193,0,0,1,.193-.193h46.863a.193.193,0,0,1,.193.193v1.892A.193.193,0,0,1,317.866,423.509Zm-46.669-.387h46.5v-1.5H271.2Z" transform="translate(-270.81 -421.23)" fill="#263238"/>
      </g>
      <g id="Сгруппировать_661" data-name="Сгруппировать 661" transform="translate(13.215 33.199)">
        <rect id="Прямоугольник_378" data-name="Прямоугольник 378" width="40.847" height="1.892" transform="translate(0.193 0.193)" fill="#fff"/>
        <path id="Контур_272" data-name="Контур 272" d="M346.011,423.509H305.163a.193.193,0,0,1-.193-.193v-1.892a.193.193,0,0,1,.193-.193h40.847a.193.193,0,0,1,.193.193v1.892A.193.193,0,0,1,346.011,423.509Zm-40.654-.387h40.46v-1.5H305.368Z" transform="translate(-304.97 -421.23)" fill="#263238"/>
      </g>
      <g id="Сгруппировать_662" data-name="Сгруппировать 662" transform="translate(15.781)">
        <path id="Контур_273" data-name="Контур 273" d="M323.909,306.027H284.83l4.213-29.837h39.079Z" transform="translate(-284.642 -275.997)" fill="#fff"/>
        <path id="Контур_274" data-name="Контур 274" d="M350.872,365.634H311.8a.193.193,0,0,1-.193-.22l4.213-29.837a.193.193,0,0,1,.193-.166h39.071a.193.193,0,0,1,.193.221l-4.213,29.837A.193.193,0,0,1,350.872,365.634Zm-38.859-.387H350.7l4.159-29.451H316.172Z" transform="translate(-311.605 -335.41)" fill="#263238"/>
      </g>
      <g id="Сгруппировать_663" data-name="Сгруппировать 663" transform="translate(17.398)">
        <path id="Контур_275" data-name="Контур 275" d="M328.089,306.027H289.01l4.213-29.837H332.3Z" transform="translate(-288.822 -275.997)" fill="#263238"/>
        <path id="Контур_276" data-name="Контур 276" d="M355.052,365.634H315.98a.193.193,0,0,1-.193-.22L320,335.576a.193.193,0,0,1,.193-.166h39.071a.193.193,0,0,1,.193.221l-4.213,29.837A.193.193,0,0,1,355.052,365.634Zm-38.859-.387h38.685l4.159-29.451H320.352Z" transform="translate(-315.785 -335.41)" fill="#263238"/>
      </g>
      <g id="Сгруппировать_664" data-name="Сгруппировать 664" transform="translate(34.414 15.969)">
        <path id="Контур_277" data-name="Контур 277" d="M370.351,377.19l3.923,19.118H364.189L360.27,377.19Zm-6.839,5.675a.356.356,0,0,0,.348.271l5.714-.054a.356.356,0,0,0,.34-.441L369.4,380.5a.36.36,0,0,0-.348-.275l-5.714.054a.36.36,0,0,0-.344.441Z" transform="translate(-360.077 -376.997)" fill="#fff"/>
        <path id="Контур_278" data-name="Контур 278" d="M373.967,396.195H363.882a.193.193,0,0,1-.19-.155l-3.919-19.118a.193.193,0,0,1,.19-.232h10.081a.193.193,0,0,1,.19.155l3.938,19.118a.2.2,0,0,1-.039.162.193.193,0,0,1-.166.07Zm-9.926-.387h9.671l-3.841-18.731H360.2Zm-.491-12.785a.545.545,0,0,1-.534-.418h0l-.518-2.147a.576.576,0,0,1,0-.116.553.553,0,0,1,.545-.561l5.714-.054a.553.553,0,0,1,.538.422l.515,2.143a.571.571,0,0,1,0,.124.549.549,0,0,1-.542.557l-5.714.054Zm-.159-.511a.162.162,0,0,0,.159.124h0l5.714-.054a.163.163,0,0,0,.159-.163l-.518-2.182a.166.166,0,0,0-.162-.128l-5.71.054a.166.166,0,0,0-.162.17Z" transform="translate(-359.77 -376.69)" fill="#263238"/>
      </g>
    </g>
    <g id="freepik--device-1--inject-16" transform="translate(24.891 106.857)">
      <g id="Сгруппировать_665" data-name="Сгруппировать 665" transform="translate(0 33.199)">
        <rect id="Прямоугольник_379" data-name="Прямоугольник 379" width="46.863" height="1.892" transform="translate(0.193 0.193)" fill="#fff"/>
        <path id="Контур_279" data-name="Контур 279" d="M138.686,423.509H91.823a.193.193,0,0,1-.193-.193v-1.892a.193.193,0,0,1,.193-.193h46.863a.193.193,0,0,1,.193.193v1.892A.193.193,0,0,1,138.686,423.509Zm-46.669-.387h46.476v-1.5H92.017Z" transform="translate(-91.63 -421.23)" fill="#263238"/>
      </g>
      <g id="Сгруппировать_666" data-name="Сгруппировать 666" transform="translate(13.215 33.199)">
        <rect id="Прямоугольник_380" data-name="Прямоугольник 380" width="40.847" height="1.892" transform="translate(0.193 0.193)" fill="#fff"/>
        <path id="Контур_280" data-name="Контур 280" d="M166.831,423.509H125.983a.193.193,0,0,1-.193-.193v-1.892a.193.193,0,0,1,.193-.193h40.847a.193.193,0,0,1,.193.193v1.892A.193.193,0,0,1,166.831,423.509Zm-40.654-.387h40.46v-1.5h-40.46Z" transform="translate(-125.79 -421.23)" fill="#263238"/>
      </g>
      <g id="Сгруппировать_667" data-name="Сгруппировать 667" transform="translate(15.781)">
        <path id="Контур_281" data-name="Контур 281" d="M144.729,306.027H105.65l4.213-29.837h39.079Z" transform="translate(-105.462 -275.997)" fill="#fff"/>
        <path id="Контур_282" data-name="Контур 282" d="M171.692,365.634H132.62a.193.193,0,0,1-.193-.22l4.213-29.837a.193.193,0,0,1,.193-.166H175.9a.193.193,0,0,1,.193.221l-4.213,29.837A.193.193,0,0,1,171.692,365.634Zm-38.855-.387h38.685L175.68,335.8H137Z" transform="translate(-132.425 -335.41)" fill="#263238"/>
      </g>
      <g id="Сгруппировать_668" data-name="Сгруппировать 668" transform="translate(17.398)">
        <path id="Контур_283" data-name="Контур 283" d="M148.909,306.027H109.83l4.213-29.837h39.079Z" transform="translate(-109.642 -275.997)" fill="#263238"/>
        <path id="Контур_284" data-name="Контур 284" d="M175.872,365.634H136.8a.193.193,0,0,1-.193-.22l4.213-29.837a.193.193,0,0,1,.193-.166h39.071a.193.193,0,0,1,.193.221l-4.217,29.837A.193.193,0,0,1,175.872,365.634Zm-38.855-.387H175.7L179.86,335.8H141.176Z" transform="translate(-136.605 -335.41)" fill="#263238"/>
      </g>
      <g id="Сгруппировать_669" data-name="Сгруппировать 669" transform="translate(34.414 15.969)">
        <path id="Контур_285" data-name="Контур 285" d="M191.175,377.19l3.919,19.118H185.009L181.09,377.19Zm-6.843,5.675a.36.36,0,0,0,.348.271l5.714-.054a.36.36,0,0,0,.344-.441l-.518-2.143a.356.356,0,0,0-.348-.275l-5.714.054a.356.356,0,0,0-.34.441Z" transform="translate(-180.897 -376.997)" fill="#fff"/>
        <path id="Контур_286" data-name="Контур 286" d="M194.787,396.195H184.7a.193.193,0,0,1-.19-.155l-3.919-19.118a.193.193,0,0,1,.19-.232h10.085a.193.193,0,0,1,.19.155l3.919,19.118a.193.193,0,0,1-.19.232Zm-9.926-.387h9.671l-3.838-18.731h-9.671Zm-.484-12.785a.553.553,0,0,1-.534-.41h0l-.514-2.147a.549.549,0,0,1,.526-.681l5.714-.054h0a.545.545,0,0,1,.534.426l.518,2.143a.535.535,0,0,1,0,.116.553.553,0,0,1-.542.561Zm-.162-.511a.166.166,0,0,0,.159.124l5.714-.054a.166.166,0,0,0,.162-.17l-.522-2.178a.182.182,0,0,0-.159-.128l-5.714.054a.162.162,0,0,0-.159.166Z" transform="translate(-180.59 -376.69)" fill="#4dd1cd"/>
      </g>
    </g>
    <g id="freepik--Table--inject-16" transform="translate(0.79 141.964)">
      <g id="Сгруппировать_670" data-name="Сгруппировать 670">
        <rect id="Прямоугольник_381" data-name="Прямоугольник 381" width="166.935" height="1.872" transform="translate(0.193 0.174)" fill="#4dd1cd"/>
        <path id="Контур_287" data-name="Контур 287" d="M196.458,428.419H29.524a.194.194,0,0,1-.194-.193v-1.872a.194.194,0,0,1,.194-.193H196.458a.194.194,0,0,1,.194.193v1.872A.194.194,0,0,1,196.458,428.419Zm-166.74-.387H196.264v-1.486H29.717Z" transform="translate(-29.33 -426.16)" fill="#4dd1cd"/>
      </g>
    </g>
  </g>
</svg>
