<svg id="Typing-cuate" xmlns="http://www.w3.org/2000/svg" width="162.753" height="150" viewBox="0 0 162.753 150">
  <g id="freepik--background-complete--inject-10" transform="translate(1.513)">
    <path id="Контур_288" data-name="Контур 288" d="M112.723,115.573h-.953v-.636h.318v-.318h.636Z" transform="translate(-68.892 -69.09)" fill="#ebebeb"/>
    <path id="Контур_289" data-name="Контур 289" d="M22.883,115.573H21.93v-.953h.636v.318h.318Z" transform="translate(-14.732 -69.09)" fill="#ebebeb"/>
    <rect id="Прямоугольник_382" data-name="Прямоугольник 382" width="4.489" height="4.489" transform="translate(5.271 43.926)" fill="#fff"/>
    <rect id="Прямоугольник_383" data-name="Прямоугольник 383" width="4.489" height="4.489" transform="translate(41.27 43.926)" fill="#fff"/>
    <rect id="Прямоугольник_384" data-name="Прямоугольник 384" width="10.519" height="4.445" transform="translate(5.867 99.982)" fill="#ebebeb"/>
    <rect id="Прямоугольник_385" data-name="Прямоугольник 385" width="10.519" height="4.445" transform="translate(60.818 65.277)" fill="#ebebeb"/>
    <rect id="Прямоугольник_386" data-name="Прямоугольник 386" width="10.519" height="4.445" transform="translate(0 105.587)" fill="#ebebeb"/>
    <rect id="Прямоугольник_387" data-name="Прямоугольник 387" width="10.519" height="4.445" transform="translate(147.285 105.587)" fill="#ebebeb"/>
    <rect id="Прямоугольник_388" data-name="Прямоугольник 388" width="10.519" height="4.445" transform="translate(141.418)" fill="#ebebeb"/>
    <rect id="Прямоугольник_389" data-name="Прямоугольник 389" width="10.519" height="4.445" transform="translate(147.285 5.605)" fill="#ebebeb"/>
    <rect id="Прямоугольник_390" data-name="Прямоугольник 390" width="10.519" height="4.445" transform="translate(5.867)" fill="#ebebeb"/>
    <rect id="Прямоугольник_391" data-name="Прямоугольник 391" width="76.359" height="3.277" transform="translate(81.44 33.657)" fill="#ebebeb"/>
    <path id="Контур_290" data-name="Контур 290" d="M230.517,105.9h-2.971l-1.2-12.906h4.167Z" transform="translate(-137.964 -56.052)" fill="#ebebeb"/>
    <path id="Контур_291" data-name="Контур 291" d="M373.18,105.9h2.975l1.192-12.906H373.18Z" transform="translate(-226.479 -56.052)" fill="#ebebeb"/>
    <path id="Контур_292" data-name="Контур 292" d="M226.35,92.99h4.167v4.445h-3.758Z" transform="translate(-137.964 -56.052)" fill="#dbdbdb"/>
    <path id="Контур_293" data-name="Контур 293" d="M377.347,92.99l-.409,4.445H373.18V92.99Z" transform="translate(-226.479 -56.052)" fill="#dbdbdb"/>
    <path id="Контур_294" data-name="Контур 294" d="M314.192,92.458c-3.388,4.588-6.924,9.931-7.782,15.667,0,.087.127.115.147.032a33.92,33.92,0,0,1,1.5-4.608c2.228-.616,4.417-1.116,5.585-3.329,1.192-2.272,1.041-5.235.794-7.714C314.454,92.374,314.275,92.366,314.192,92.458Z" transform="translate(-205.105 -78.467)" fill="#ebebeb"/>
    <path id="Контур_295" data-name="Контур 295" d="M310.671,105.707a37.953,37.953,0,0,1,5.958-9.657s.044,0,.028.028a41.085,41.085,0,0,0-4.068,6.4c1.12-1.136,2.352-2.157,3.412-3.365a.024.024,0,0,1,.036.032h0a18.81,18.81,0,0,1-3.575,3.575c-.369.683-.739,1.362-1.116,2.046.091-.052.187-.1.282-.143,0,0,.032,0,0,.024-.107.052-.211.107-.318.155-.179.322-.357.647-.54.969C310.738,105.842,310.639,105.778,310.671,105.707Z" transform="translate(-207.669 -80.669)" fill="#a6a6a6"/>
    <path id="Контур_296" data-name="Контур 296" d="M313.5,114.726a20.026,20.026,0,0,0,2.6-1.736s.052,0,.032.032a13.748,13.748,0,0,1-2.6,1.768C313.5,114.809,313.457,114.75,313.5,114.726Z" transform="translate(-209.367 -90.88)" fill="#a6a6a6"/>
    <path id="Контур_297" data-name="Контур 297" d="M305.144,96.059c0,.071.127.068.123,0,0-1.9,0-3.8.032-5.7.485-.981,1.529-1.521,2.252-2.308a9.933,9.933,0,0,0,1.362-1.863,13.471,13.471,0,0,0,1.589-5.228c.2-2.026-.568-8.715-1.422-8.485-.445.123-1.879,3.436-2.26,4.528a31.38,31.38,0,0,0-1.347,5.561A57.2,57.2,0,0,0,305.144,96.059Z" transform="translate(-204.196 -66.453)" fill="#ebebeb"/>
    <path id="Контур_298" data-name="Контур 298" d="M305.428,89.64h0a43.313,43.313,0,0,1,1.148-7.15,24.319,24.319,0,0,1,2.471-7.1.04.04,0,0,1,.068.036,26.471,26.471,0,0,0-1.986,5.45c.087-.135.191-.262.282-.4.036-.052.115,0,.083.048a3.419,3.419,0,0,1-.4.568h0c-.445,1.792-.763,3.623-1.037,5.45l.064-.071s.036,0,.028.024a1.777,1.777,0,0,1-.111.179c-.135.93-.262,1.855-.4,2.781a13.013,13.013,0,0,0,3.857-5.124h0a10.631,10.631,0,0,1-3.9,5.307c-.036.246-.072.493-.1.739,0,.052-.091.04-.091,0v-.655a.052.052,0,0,1,0-.072Z" transform="translate(-204.492 -68.21)" fill="#a6a6a6"/>
    <path id="Контур_299" data-name="Контур 299" d="M307.429,93.736a38.427,38.427,0,0,0,3.365-5.8h.04a18.777,18.777,0,0,1-3.341,5.823C307.461,93.819,307.4,93.775,307.429,93.736Z" transform="translate(-205.714 -75.781)" fill="#a6a6a6"/>
    <path id="Контур_300" data-name="Контур 300" d="M311.66,82.536c.52-.926,1.072-1.823,1.565-2.781,0-.024.052,0,.04.024a14.3,14.3,0,0,1-1.525,2.781.048.048,0,0,1-.079-.024Z" transform="translate(-208.269 -70.841)" fill="#a6a6a6"/>
    <path id="Контур_301" data-name="Контур 301" d="M311.14,87.79Z" transform="translate(-207.955 -75.69)" fill="#a6a6a6"/>
    <path id="Контур_302" data-name="Контур 302" d="M295.136,96.413a19.265,19.265,0,0,1-.445,3.734l.06.4a17.613,17.613,0,0,0,.667-4.159.127.127,0,0,0,0-.131h0A27.41,27.41,0,0,0,295,90.6a17.929,17.929,0,0,0-4.3-9.438.171.171,0,0,0-.242,0l-.024.04a11.938,11.938,0,0,0,.195,7.945,14.7,14.7,0,0,0,1.934,3.837A31.382,31.382,0,0,1,295.136,96.413Z" transform="translate(-195.112 -71.666)" fill="#ebebeb"/>
    <path id="Контур_303" data-name="Контур 303" d="M292.6,84.206a26.823,26.823,0,0,1,4.1,12.576.071.071,0,0,1-.139,0q-.083-.6-.179-1.192h0a15.126,15.126,0,0,1-2.614-3.015s0-.044.032-.028a31.573,31.573,0,0,0,2.538,2.781q-.246-1.458-.592-2.88l-.183-.215c-.04-.048.028-.115.072-.068l.052.06a33.042,33.042,0,0,0-1.192-3.821,11.563,11.563,0,0,1-1.664-2.145c.346.481.675.965,1.065,1.41.155.179.326.346.489.52a29.622,29.622,0,0,0-1.887-3.929.06.06,0,0,1,.1-.056Z" transform="translate(-196.714 -73.516)" fill="#a6a6a6"/>
    <path id="Контур_304" data-name="Контур 304" d="M293.844,95.821c.743,1,1.589,1.958,2.284,2.991,0,.032-.024.06-.048.036a15.052,15.052,0,0,1-2.288-3C293.773,95.817,293.821,95.794,293.844,95.821Z" transform="translate(-197.495 -80.524)" fill="#a6a6a6"/>
    <path id="Контур_305" data-name="Контур 305" d="M299.876,103.975l.032.032c0,.024,0,.06-.036.036l-.032-.032C299.821,103.975,299.852,103.935,299.876,103.975Z" transform="translate(-201.14 -85.436)" fill="#a6a6a6"/>
    <path id="Контур_306" data-name="Контур 306" d="M282.772,99.578a11.464,11.464,0,0,0,2.431,5.7,6.006,6.006,0,0,0,1.986,1.537c.85.421,1.744.91,2.626,1.255a17.245,17.245,0,0,1,.934,3.3l.083-.294c-.564-4.866-3.714-9.025-7.742-11.694a.195.195,0,0,0-.318.191Z" transform="translate(-190.852 -82.652)" fill="#ebebeb"/>
    <path id="Контур_307" data-name="Контур 307" d="M286.271,103.471a.033.033,0,1,1,.04-.052,16.5,16.5,0,0,1,5.132,6.324c.028.068-.064.127-.1.06-.187-.33-.4-.647-.572-.961h0a5.488,5.488,0,0,1-2.471-1.434s0-.044.024-.028a5.64,5.64,0,0,0,1.164.818c.4.191.794.31,1.168.461-.338-.54-.7-1.057-1.065-1.561a10.824,10.824,0,0,1-2.781-1.553c-.024,0,0-.064.028-.044a27.965,27.965,0,0,0,2.566,1.37,22.726,22.726,0,0,0-1.811-2.113c-.314-.163-.632-.33-.933-.508-.024,0,0-.056,0-.044a3.3,3.3,0,0,1,.715.35A14.316,14.316,0,0,0,286.271,103.471Z" transform="translate(-192.956 -85.108)" fill="#a6a6a6"/>
    <path id="Контур_308" data-name="Контур 308" d="M286.453,107.785a1.1,1.1,0,0,1,.155.111v.024a.8.8,0,0,1-.159-.091C286.4,107.813,286.425,107.769,286.453,107.785Z" transform="translate(-193.054 -87.741)" fill="#a6a6a6"/>
    <path id="Контур_309" data-name="Контур 309" d="M255.384,73.79H247.09l.405-5.434.159-1.776h7.091l.155,1.776Z" transform="translate(-150.467 -40.133)" fill="#dbdbdb"/>
    <path id="Контур_310" data-name="Контур 310" d="M255.514,68.356h-7.4l.159-1.776h7.091Z" transform="translate(-151.082 -40.133)" fill="#c7c7c7"/>
    <rect id="Прямоугольник_392" data-name="Прямоугольник 392" width="8.223" height="1.819" transform="translate(96.623 24.994)" fill="#dbdbdb"/>
    <rect id="Прямоугольник_393" data-name="Прямоугольник 393" width="4.973" height="19.742" transform="translate(120.1 13.903)" fill="#c7c7c7"/>
    <rect id="Прямоугольник_394" data-name="Прямоугольник 394" width="4.973" height="2.169" transform="translate(120.096 12.846)" fill="#dbdbdb"/>
    <rect id="Прямоугольник_395" data-name="Прямоугольник 395" width="4.973" height="0.806" transform="translate(120.096 17.8)" fill="#dbdbdb"/>
    <rect id="Прямоугольник_396" data-name="Прямоугольник 396" width="4.973" height="2.169" transform="translate(120.096 28.886)" fill="#dbdbdb"/>
    <rect id="Прямоугольник_397" data-name="Прямоугольник 397" width="3.476" height="23.027" transform="translate(125.069 10.618)" fill="#dbdbdb"/>
    <rect id="Прямоугольник_398" data-name="Прямоугольник 398" width="2.085" height="8.858" transform="translate(125.748 12.783)" fill="#ebebeb"/>
    <rect id="Прямоугольник_399" data-name="Прямоугольник 399" width="3.476" height="23.027" transform="matrix(0.703, -0.711, 0.711, 0.703, 134.46, 17.431)" fill="#c7c7c7"/>
    <rect id="Прямоугольник_400" data-name="Прямоугольник 400" width="2.085" height="8.858" transform="matrix(0.703, -0.711, 0.711, 0.703, 141.187, 23.096)" fill="#dbdbdb"/>
    <rect id="Прямоугольник_401" data-name="Прямоугольник 401" width="5.899" height="17.494" transform="translate(128.536 16.159)" fill="#a6a6a6"/>
    <rect id="Прямоугольник_402" data-name="Прямоугольник 402" width="5.899" height="1.629" transform="translate(128.54 30.166)" fill="#c7c7c7"/>
    <rect id="Прямоугольник_403" data-name="Прямоугольник 403" width="5.899" height="0.632" transform="translate(128.54 28.461)" fill="#c7c7c7"/>
    <rect id="Прямоугольник_404" data-name="Прямоугольник 404" width="16.437" height="4.076" transform="translate(109.912 32.057) rotate(-66.77)" fill="#a6a6a6"/>
    <rect id="Прямоугольник_405" data-name="Прямоугольник 405" width="1.533" height="4.076" transform="translate(110.591 30.455) rotate(-66.77)" fill="#c7c7c7"/>
    <rect id="Прямоугольник_406" data-name="Прямоугольник 406" width="1.533" height="4.076" transform="translate(114.449 21.469) rotate(-66.77)" fill="#c7c7c7"/>
    <rect id="Прямоугольник_407" data-name="Прямоугольник 407" width="0.596" height="4.076" transform="translate(113.796 22.98) rotate(-66.77)" fill="#c7c7c7"/>
    <path id="Контур_311" data-name="Контур 311" d="M281.8,154.086l-22.984,6.01L251.1,130.59l17.069-4.465,5.919-1.545,1.47,5.621Z" transform="translate(-152.887 -75.093)" fill="#ebebeb"/>
    <rect id="Прямоугольник_408" data-name="Прямоугольник 408" width="19.386" height="0.784" transform="translate(101.828 60.405) rotate(-14.452)" fill="#dbdbdb"/>
    <rect id="Прямоугольник_409" data-name="Прямоугольник 409" width="19.386" height="0.784" transform="translate(102.328 62.327) rotate(-14.452)" fill="#dbdbdb"/>
    <rect id="Прямоугольник_410" data-name="Прямоугольник 410" width="19.386" height="0.784" transform="translate(102.818 64.243) rotate(-14.452)" fill="#dbdbdb"/>
    <rect id="Прямоугольник_411" data-name="Прямоугольник 411" width="19.386" height="0.784" transform="translate(103.32 66.161) rotate(-14.452)" fill="#dbdbdb"/>
    <rect id="Прямоугольник_412" data-name="Прямоугольник 412" width="19.386" height="0.784" transform="translate(103.812 68.08) rotate(-14.452)" fill="#dbdbdb"/>
    <rect id="Прямоугольник_413" data-name="Прямоугольник 413" width="19.386" height="0.784" transform="translate(104.31 69.998) rotate(-14.452)" fill="#dbdbdb"/>
    <rect id="Прямоугольник_414" data-name="Прямоугольник 414" width="19.386" height="0.784" transform="translate(104.805 71.918) rotate(-14.452)" fill="#dbdbdb"/>
    <rect id="Прямоугольник_415" data-name="Прямоугольник 415" width="19.386" height="0.784" transform="translate(105.3 73.837) rotate(-14.452)" fill="#dbdbdb"/>
    <rect id="Прямоугольник_416" data-name="Прямоугольник 416" width="19.386" height="0.784" transform="translate(105.795 75.756) rotate(-14.452)" fill="#dbdbdb"/>
    <rect id="Прямоугольник_417" data-name="Прямоугольник 417" width="19.386" height="0.784" transform="translate(106.292 77.667) rotate(-14.452)" fill="#dbdbdb"/>
    <rect id="Прямоугольник_418" data-name="Прямоугольник 418" width="19.385" height="0.783" transform="translate(106.678 78.301) rotate(-14.45)" fill="#dbdbdb"/>
    <rect id="Прямоугольник_419" data-name="Прямоугольник 419" width="19.386" height="0.784" transform="translate(107.282 81.508) rotate(-14.452)" fill="#dbdbdb"/>
    <path id="Контур_312" data-name="Контур 312" d="M305.177,174.6l-23.723,1.327-1.7-30.452,17.613-.985,6.435,5.462Z" transform="translate(-170.162 -87.094)" fill="#ebebeb"/>
    <path id="Контур_313" data-name="Контур 313" d="M324.09,144.49l6.435,5.462-6.109.342Z" transform="translate(-196.889 -87.094)" fill="#dbdbdb"/>
    <rect id="Прямоугольник_420" data-name="Прямоугольник 420" width="13.208" height="0.783" transform="matrix(0.998, -0.056, 0.056, 0.998, 112.199, 63.353)" fill="#dbdbdb"/>
    <rect id="Прямоугольник_421" data-name="Прямоугольник 421" width="13.208" height="0.783" transform="matrix(0.998, -0.056, 0.056, 0.998, 112.305, 65.334)" fill="#dbdbdb"/>
    <rect id="Прямоугольник_422" data-name="Прямоугольник 422" width="13.208" height="0.783" transform="matrix(0.998, -0.056, 0.056, 0.998, 112.427, 67.302)" fill="#dbdbdb"/>
    <rect id="Прямоугольник_423" data-name="Прямоугольник 423" width="19.353" height="0.783" transform="matrix(0.998, -0.056, 0.056, 0.998, 112.531, 69.272)" fill="#dbdbdb"/>
    <rect id="Прямоугольник_424" data-name="Прямоугольник 424" width="19.353" height="0.783" transform="matrix(0.998, -0.056, 0.056, 0.998, 112.641, 71.249)" fill="#dbdbdb"/>
    <rect id="Прямоугольник_425" data-name="Прямоугольник 425" width="19.353" height="0.783" transform="matrix(0.998, -0.056, 0.056, 0.998, 112.747, 73.222)" fill="#dbdbdb"/>
    <rect id="Прямоугольник_426" data-name="Прямоугольник 426" width="19.353" height="0.783" transform="matrix(0.998, -0.056, 0.056, 0.998, 112.861, 75.195)" fill="#dbdbdb"/>
    <rect id="Прямоугольник_427" data-name="Прямоугольник 427" width="19.353" height="0.783" transform="matrix(0.998, -0.056, 0.056, 0.998, 112.975, 77.171)" fill="#dbdbdb"/>
    <rect id="Прямоугольник_428" data-name="Прямоугольник 428" width="19.353" height="0.783" transform="matrix(0.998, -0.056, 0.056, 0.998, 113.081, 79.145)" fill="#dbdbdb"/>
    <rect id="Прямоугольник_429" data-name="Прямоугольник 429" width="19.353" height="0.783" transform="matrix(0.998, -0.056, 0.056, 0.998, 113.19, 81.114)" fill="#dbdbdb"/>
    <rect id="Прямоугольник_430" data-name="Прямоугольник 430" width="19.353" height="0.783" transform="matrix(0.998, -0.056, 0.056, 0.998, 113.304, 83.09)" fill="#dbdbdb"/>
    <rect id="Прямоугольник_431" data-name="Прямоугольник 431" width="19.353" height="0.783" transform="matrix(0.998, -0.056, 0.056, 0.998, 113.414, 85.063)" fill="#dbdbdb"/>
  </g>
  <g id="freepik--Desk--inject-10" transform="translate(0 142.957)">
    <path id="Контур_314" data-name="Контур 314" d="M0,360.135l20.1-.1L40.21,360l40.206-.064,40.206.064,20.1.036,20.1.1-20.1.1-20.1.036-40.206.064L40.21,360.27l-20.1-.036Z" transform="translate(0 -359.94)" fill="#263238"/>
  </g>
  <g id="freepik--Character--inject-10" transform="translate(6.411 44.242)">
    <path id="Контур_315" data-name="Контур 315" d="M103.688,178.835c-2.447-5.49-7.758-9.093-12.862-7.726C79.874,174.037,81.363,190.593,73.5,201.3c-9.5,12.934-9.617,23.806-1.347,25.383,9.263,1.764,17.919-8.171,16.934-28.978-.616-13.013,2.129-17.621,5.653-18.622,2.59-.735,5.482,2.383,5.482,2.383Z" transform="translate(-65.164 -170.001)" fill="#263238"/>
    <path id="Контур_316" data-name="Контур 316" d="M94.006,220.37c-.052,2.07.131,4.135.238,6.2s.262,4.115.326,6.169a60.993,60.993,0,0,1-.083,6.149,30.1,30.1,0,0,1-.949,6.026A15.79,15.79,0,0,1,91,250.373a17.783,17.783,0,0,1-4.532,4.091,13.537,13.537,0,0,1-5.8,2.034,12.262,12.262,0,0,1-3.122-.056,10.544,10.544,0,0,1-1.533-.334,5.521,5.521,0,0,1-1.45-.6A7.945,7.945,0,0,0,77.5,256.7a12.711,12.711,0,0,0,3.206.27,13.47,13.47,0,0,0,3.178-.56,14.434,14.434,0,0,0,2.967-1.307,17.054,17.054,0,0,0,2.63-1.871l.6-.54.576-.56a12.067,12.067,0,0,0,1.076-1.215,16.525,16.525,0,0,0,2.737-5.756,39,39,0,0,0,.846-12.453c-.131-2.07-.358-4.127-.608-6.181S94.173,222.428,94.006,220.37Z" transform="translate(-70.24 -199.869)" fill="#263238"/>
    <path id="Контур_317" data-name="Контур 317" d="M99.793,174.417a17.007,17.007,0,0,0-3-3.067,9.275,9.275,0,0,0-7.945-1.66,12.1,12.1,0,0,0-1.986.7,10.327,10.327,0,0,0-1.8,1.017,11.964,11.964,0,0,0-2.781,3.031,20.3,20.3,0,0,0-1.847,3.778c-1.021,2.646-1.728,5.442-2.554,8.211a56.734,56.734,0,0,1-3,8.191,56.06,56.06,0,0,1-4.516,7.448,66.665,66.665,0,0,0-4.636,7.241,16.955,16.955,0,0,0-1.553,3.972l-.23,1.045c-.048.354-.072.711-.107,1.065l-.04.516v.54l.024,1.076a14.574,14.574,0,0,1,1.41-8.477,69.042,69.042,0,0,1,4.409-7.48,63.266,63.266,0,0,0,4.274-7.424,58.069,58.069,0,0,0,2.876-8.056c.842-2.745,1.553-5.561,2.646-8.274a21.274,21.274,0,0,1,2.014-3.937,12.028,12.028,0,0,1,3.13-3.178,11,11,0,0,1,1.986-1.033,12.179,12.179,0,0,1,2.121-.671,9.371,9.371,0,0,1,8.294,2.121,15.262,15.262,0,0,1,2.808,3.3Z" transform="translate(-63.669 -168.76)" fill="#263238"/>
    <path id="Контур_318" data-name="Контур 318" d="M154.56,189.707c0-1.045-.794-2.383-1.458-2.538s-5.637,2.1-6.034,3.392,1.851,2.383,1.851,2.383Z" transform="translate(-113.911 -179.852)" fill="#4dd1cd"/>
    <path id="Контур_319" data-name="Контур 319" d="M153.1,285.983c2.876,17.22,7.178,30.984,11.73,34.515,3.674,2.868,8.977,5.1,14.479,6.809a140.037,140.037,0,0,0,17.951,4.076c1.867.31,3.424.532,4.528.7,2.733.4,8.711-17.379,6.944-19.75-.4-.544-2.185-1.08-4.7-1.613-8.465-1.768-26.185-3.154-27.111-4.195s-9.478-13.593-16.354-23.254C155.757,276.513,151.51,276.433,153.1,285.983Z" transform="translate(-117.372 -234.891)" fill="#f7a9a0"/>
    <path id="Контур_320" data-name="Контур 320" d="M262.69,378.713a65.537,65.537,0,0,0,7.945,3.674c2.177.739,8.5,2.693,9.534.4.719-1.589-2.864-3.178-5.375-4.346-1.319-.62-2.916-2.105-2.483-2.951.763-1.482,4.163.191,6.383,1.617,4.294,2.757,9.962,7.631,12.755,5.514,1.053-.794-.06-2.383-1.724-3.972,2.729,1.883,5.657,3.46,6.864,2.618a1.458,1.458,0,0,0,.4-1.986,1.958,1.958,0,0,0,2.181-.242c.953-.914.572-2.34-.361-3.829a1.1,1.1,0,0,0,.854-.508c2.062-2.856-7.23-11.742-10.539-12.683a74.124,74.124,0,0,0-20.235-2.383C264.9,362.51,262.682,378.705,262.69,378.713Z" transform="translate(-183.633 -283.799)" fill="#f7a9a0"/>
    <path id="Контур_321" data-name="Контур 321" d="M300.076,386.23a16.1,16.1,0,0,1,6.451,2.82c2.225,1.676,3.972,3.913,5.994,5.788.056.052-.028.135-.083.083-.953-.965-2.014-1.839-3.011-2.781s-1.919-1.847-2.951-2.685a15.925,15.925,0,0,0-6.407-3.178A.024.024,0,1,1,300.076,386.23Z" transform="translate(-206.15 -299.844)" fill="#263238"/>
    <path id="Контур_322" data-name="Контур 322" d="M305.18,375.93a40.3,40.3,0,0,1,7.516,2.983c2.566,1.454,4.524,3.73,6.451,5.919q1.732,1.986,3.38,4.02c.048.056-.032.139-.079.083q-2.932-3.392-6.062-6.6a21.054,21.054,0,0,0-6.753-4.7c-1.454-.632-2.951-1.148-4.449-1.66a.024.024,0,0,1,0-.048Z" transform="translate(-209.233 -293.636)" fill="#263238"/>
    <path id="Контур_323" data-name="Контур 323" d="M312.557,367a20.487,20.487,0,0,1,6.824,2.61,36.293,36.293,0,0,1,6.522,6.153c1.049,1.223,2.058,2.483,3.047,3.754.04.052-.052.123-.091.071a83.283,83.283,0,0,0-7.325-7.945,16.575,16.575,0,0,0-4.163-2.979A29.812,29.812,0,0,0,312.549,367Z" transform="translate(-213.686 -288.253)" fill="#263238"/>
    <path id="Контур_324" data-name="Контур 324" d="M154.616,302.984l14.976-8.83s-6.391-10.328-11.853-15.2-7.667-1.049-6.836,6.034A166.916,166.916,0,0,0,154.616,302.984Z" transform="translate(-116.148 -233.862)" fill="#4dd1cd"/>
    <path id="Контур_325" data-name="Контур 325" d="M161.017,303.552a6.28,6.28,0,0,1-.532,1.72c-.044.087-.083.179-.127.266l-.616.362c.091-.278.2-.552.322-.822a6.281,6.281,0,0,1,.953-1.525Zm-6.1-7.893a6.149,6.149,0,0,0-1.72-.532,6.936,6.936,0,0,0,3.245,1.49A6.42,6.42,0,0,0,154.92,295.659Zm5.136-8.739a6.247,6.247,0,0,0,.838,1.589,6.9,6.9,0,0,0-1.243-3.349,6.463,6.463,0,0,0,.4,1.768Zm6.884,7.11a6.755,6.755,0,0,0-1.458.366,6.356,6.356,0,0,0-1.589.842,6.354,6.354,0,0,0,1.76-.4,6.867,6.867,0,0,0,1.339-.659.752.752,0,0,0-.052-.143Z" transform="translate(-117.636 -238.923)" fill="#fff"/>
    <path id="Контур_326" data-name="Контур 326" d="M173.057,314.886A113.7,113.7,0,0,0,160.4,322.5c-.024,0,.036.115.06.1,3.575-1.871,10.4-6.129,12.684-7.547C173.188,315.009,173.1,314.862,173.057,314.886Z" transform="translate(-121.973 -256.839)" fill="#263238"/>
    <path id="Контур_327" data-name="Контур 327" d="M168.363,294.948l-13.74,8.1a166.292,166.292,0,0,1-3.718-18c-.532-4.572.195-7.786,2.248-8.179Z" transform="translate(-116.151 -233.926)" fill="#263238"/>
    <path id="Контур_328" data-name="Контур 328" d="M121.8,330.893H72.29S83.043,289.363,93,277.665c.222-.27.453-.52.683-.759.048-.056.087-.1.135-.143a10.553,10.553,0,0,1,2.657-2.058c.175-.1.35-.183.532-.262,3.833-1.764,7.881-.3,10.8,2.2.926.794,11.42,14.447,12.35,19.651.794,4.6-2.3,9.534-2.3,9.534Z" transform="translate(-68.865 -231.995)" fill="#4dd1cd"/>
    <path id="Контур_329" data-name="Контур 329" d="M100.564,290.2a6.315,6.315,0,0,1-.536,1.724,6.175,6.175,0,0,1-.957,1.525,6.245,6.245,0,0,1,.536-1.72A6.317,6.317,0,0,1,100.564,290.2Zm-7.452,23.246a6.419,6.419,0,0,0-.532,1.72,6.935,6.935,0,0,0,1.49-3.245A6.419,6.419,0,0,0,93.112,313.446ZM86.995,337.7a6.133,6.133,0,0,0-.532,1.724,7.079,7.079,0,0,0,1.49-3.249A6.419,6.419,0,0,0,86.995,337.7Zm24.938-29.59a6.317,6.317,0,0,0-.536,1.724,6.126,6.126,0,0,0,.957-1.529,6.281,6.281,0,0,0,.532-1.72,6.282,6.282,0,0,0-.953,1.525Zm7.845,15.849a6.355,6.355,0,0,0-.524,1.7,5.521,5.521,0,0,0,.647-.922h0Zm-18.856,11.269a6.448,6.448,0,0,0-.532,1.724,6.126,6.126,0,0,0,.957-1.529,6.419,6.419,0,0,0,.532-1.72,6.418,6.418,0,0,0-.957,1.525Zm5.867-36.545a6.148,6.148,0,0,0-1.72-.532,6.936,6.936,0,0,0,3.245,1.49,6.416,6.416,0,0,0-1.525-.949Zm3.273,19.714a6.42,6.42,0,0,0-1.72-.532,6.3,6.3,0,0,0,1.525.957,6.417,6.417,0,0,0,1.72.532,6.419,6.419,0,0,0-1.525-.949Zm1.192,21.558a6.447,6.447,0,0,0-1.724-.532,6.975,6.975,0,0,0,3.249,1.49,6.419,6.419,0,0,0-1.525-.949ZM87.3,321.815a6.447,6.447,0,0,0-1.724-.532,6.244,6.244,0,0,0,1.529.957,6.42,6.42,0,0,0,1.72.532,6.419,6.419,0,0,0-1.525-.949ZM119.48,312.1a5.5,5.5,0,0,0,.226,1.192c.068-.167.139-.342.207-.52a5.085,5.085,0,0,0-.433-.663Zm-.961,23a6.383,6.383,0,0,0,.838,1.589,6.284,6.284,0,0,0-.4-1.756,6.391,6.391,0,0,0-.842-1.589,6.5,6.5,0,0,0,.4,1.764ZM92.862,301.767a6.248,6.248,0,0,0,.838,1.589,6.356,6.356,0,0,0-.4-1.756,6.531,6.531,0,0,0-.842-1.589,6.287,6.287,0,0,0,.4,1.764Zm7.861,20.378a6.383,6.383,0,0,0,.838,1.589,6.154,6.154,0,0,0-.4-1.756,6.248,6.248,0,0,0-.838-1.589,6.355,6.355,0,0,0,.4,1.764Zm-21.331,8.314a6.354,6.354,0,0,0,.838,1.589,6.356,6.356,0,0,0-.4-1.76,6.531,6.531,0,0,0-.842-1.589,6.288,6.288,0,0,0,.4,1.76Zm30.491-.914a6.327,6.327,0,0,0,1.589-.842,6.152,6.152,0,0,0-1.756.4,6.247,6.247,0,0,0-1.589.838A6.354,6.354,0,0,0,109.883,329.545Zm-28.7-15.7h0c-.064.187-.131.369-.195.556l.258-.087a6.144,6.144,0,0,0,1.589-.842A6.084,6.084,0,0,0,81.183,313.843ZM116.6,297.767a5.245,5.245,0,0,0-.846.516,4.9,4.9,0,0,0,1.057-.183C116.739,297.99,116.668,297.878,116.6,297.767ZM93.136,329.545a6.529,6.529,0,0,0,1.589-.842,6.153,6.153,0,0,0-1.756.4,6.357,6.357,0,0,0-1.589.838A6.354,6.354,0,0,0,93.136,329.545ZM74.252,338.5c-.266.1-.528.211-.794.338q-.056.215-.107.4a7.982,7.982,0,0,0,1.053-.306,6.354,6.354,0,0,0,1.589-.838A6.285,6.285,0,0,0,74.252,338.5Zm27.012-31.067a6.529,6.529,0,0,0,1.589-.842,6.153,6.153,0,0,0-1.756.4,6.356,6.356,0,0,0-1.589.838,6.487,6.487,0,0,0,1.752-.4Z" transform="translate(-69.504 -241.961)" fill="#fff"/>
    <path id="Контур_330" data-name="Контур 330" d="M149.476,350.169a42.757,42.757,0,0,0-6.256,1.084c-1.017.27-2.014.584-3.011.922-.5.171-1,.322-1.5.469a6.56,6.56,0,0,1-1.609.318.04.04,0,0,0,0,.075,11.253,11.253,0,0,0,1.553-.04,11.782,11.782,0,0,0,1.482-.294c1.033-.262,2.054-.576,3.086-.85,2.085-.556,4.167-1.108,6.284-1.513C149.6,350.324,149.575,350.157,149.476,350.169Z" transform="translate(-107.914 -278.108)" fill="#263238"/>
    <path id="Контур_331" data-name="Контур 331" d="M165.555,354.432a46.934,46.934,0,0,0-5.231-.2,24.965,24.965,0,0,0-2.614.179c-.4.044-.83.1-1.243.151s-.9.183-1.359.238c-.048,0-.044.083,0,.075.429-.04.87,0,1.3,0l1.307-.048c.87-.028,1.74-.048,2.614-.083,1.744-.075,3.48-.131,5.224-.143a.083.083,0,1,0,0-.167Z" transform="translate(-118.765 -280.552)" fill="#263238"/>
    <path id="Контур_332" data-name="Контур 332" d="M90.008,281.066c-7.853,8.409-25.423,38.627-19.381,44.446s44.013,5.931,50.778,5.931c3.079,0-3.229-20.259-6.53-20.656-2.749-.338-22.733-.985-23.139-1.8-.461-.914,2.149-8.286,4.457-20.739C98.667,274.9,93.464,277.352,90.008,281.066Z" transform="translate(-67.115 -234.686)" fill="#f7a9a0"/>
    <path id="Контур_333" data-name="Контур 333" d="M211.48,341.72c6.824-.953,8.739-.147,14.058-4.008,3.5-2.534,6.618-1.386,4.624,2.638-3.269,6.586-11.818,9.661-15.095,9.875Z" transform="translate(-152.765 -269.79)" fill="#f7a9a0"/>
    <path id="Контур_334" data-name="Контур 334" d="M165.84,355.908a70.351,70.351,0,0,1,14.84-5.994c4.961-1.192,16.56-3.079,26.646,8.342,3.178,3.6,3.349,8.687-1.525,5.649-3.786-2.36-5.823-4.715-8.366-5.426,0,0,1.394,7.234-1.3,9.653a66.681,66.681,0,0,1-7.5,5.815,13.476,13.476,0,0,1-1.215-1.307s-2.733,2.022-7.877,1.533Z" transform="translate(-125.255 -277.408)" fill="#f7a9a0"/>
    <path id="Контур_335" data-name="Контур 335" d="M213.629,350.32c2.383,1.235,7.353,3.941,10.662,7.571,3.67,4.032,9.657,12.791,6.654,15.492-2.2,1.962-4.767-1.192-4.767-1.192s1.712,4.143-.667,5.482c-2.169,1.22-4.016-1.331-4.016-1.331s.6,2.693-1.708,3.468c-2.781.93-3.6-4.862-7.234-6.356C211.722,373.109,213.629,350.32,213.629,350.32Z" transform="translate(-153.285 -278.199)" fill="#f7a9a0"/>
    <path id="Контур_336" data-name="Контур 336" d="M229.725,377.491a21.7,21.7,0,0,1,6.816,11.015c.024.111-.044.187-.087.091a53.575,53.575,0,0,0-6.753-11.071C229.669,377.5,229.7,377.471,229.725,377.491Z" transform="translate(-163.74 -294.573)" fill="#263238"/>
    <path id="Контур_337" data-name="Контур 337" d="M220.021,386.985a24.435,24.435,0,0,1,6.145,11.4c.02.107-.056.179-.1.083a57.2,57.2,0,0,0-6.086-11.46C219.962,386.985,219.985,386.961,220.021,386.985Z" transform="translate(-157.886 -300.294)" fill="#263238"/>
    <path id="Контур_338" data-name="Контур 338" d="M193.965,366.321a18.2,18.2,0,0,0,2.415-.191,8.042,8.042,0,0,0,2.32-.636h.02a15.78,15.78,0,0,1,2.125,2.383,12.406,12.406,0,0,1,.858,1.359,4.715,4.715,0,0,0,.945,1.243,2.229,2.229,0,0,0,1.382.608,1.986,1.986,0,0,0,1.39-.544,2.61,2.61,0,0,0,.707-1.339,5.374,5.374,0,0,0,.111-1.553l-.024-.342.214.266a4.179,4.179,0,0,0,2.058,1.478,2.431,2.431,0,0,0,1.251,0,2.252,2.252,0,0,0,1.073-.624,3.314,3.314,0,0,0,.592-2.415,9.843,9.843,0,0,0-.544-2.546l-.234-.679.457.556a5.239,5.239,0,0,0,2.066,1.589,2.614,2.614,0,0,0,1.263.179,2.558,2.558,0,0,0,1.172-.477,2.106,2.106,0,0,0,.707-1.029,3.777,3.777,0,0,0,.151-1.287,8.866,8.866,0,0,0-.56-2.59,23.686,23.686,0,0,0-2.467-4.767,46.734,46.734,0,0,0-3.21-4.33l-.358-.425.552.167a9.07,9.07,0,0,1,1.78.794q.834.481,1.625,1.033c1.057.727,2.038,1.553,3.055,2.3a16.421,16.421,0,0,0,3.2,1.986,1.962,1.962,0,0,0,1.676.111,1.568,1.568,0,0,0,.592-1.509,5.7,5.7,0,0,0-.425-1.788,9.386,9.386,0,0,0-.922-1.625,20.655,20.655,0,0,0-2.471-2.868,32.931,32.931,0,0,0-2.864-2.495A26.425,26.425,0,0,0,212.5,344.2l-.175-.1.143-.143a15.715,15.715,0,0,0,2.912-3.8,4.855,4.855,0,0,0,.6-2.256,2.189,2.189,0,0,0-.29-1.092,1.41,1.41,0,0,0-.874-.644,3.464,3.464,0,0,0-2.248.429,23.319,23.319,0,0,0-2.089,1.192,18.463,18.463,0,0,1-4.246,2.383,14.656,14.656,0,0,1-2.383.481c-.794.111-1.609.207-2.411.306-1.589.195-3.21.4-4.806.659a45.515,45.515,0,0,0-9.379,2.415,45.6,45.6,0,0,1,9.359-2.534c1.589-.278,3.2-.5,4.8-.719l2.383-.33a13.819,13.819,0,0,0,2.36-.485,17.426,17.426,0,0,0,4.183-2.383c.683-.441,1.378-.858,2.105-1.231a3.694,3.694,0,0,1,2.431-.425,1.7,1.7,0,0,1,1.033.755,2.446,2.446,0,0,1,.33,1.223,5.049,5.049,0,0,1-.624,2.383,15.841,15.841,0,0,1-2.951,3.889l-.028-.238a26.871,26.871,0,0,1,3.178,2.133,33.558,33.558,0,0,1,2.9,2.51,20.724,20.724,0,0,1,2.526,2.9,9.79,9.79,0,0,1,.965,1.684,6.089,6.089,0,0,1,.461,1.911,2.714,2.714,0,0,1-.115,1.017,1.5,1.5,0,0,1-.655.838,1.613,1.613,0,0,1-1.041.183,3.749,3.749,0,0,1-.969-.258,15.89,15.89,0,0,1-3.293-2.018c-1.029-.771-1.986-1.589-3.035-2.312-.516-.361-1.049-.707-1.589-1.021a8.456,8.456,0,0,0-1.68-.794l.179-.286a47.449,47.449,0,0,1,3.214,4.37,23.888,23.888,0,0,1,2.463,4.842,9.179,9.179,0,0,1,.568,2.681,4.115,4.115,0,0,1-.171,1.386,2.383,2.383,0,0,1-.794,1.164,2.812,2.812,0,0,1-1.311.528,2.955,2.955,0,0,1-1.39-.2,5.525,5.525,0,0,1-2.173-1.684l.222-.123a10.177,10.177,0,0,1,.548,2.618,5.164,5.164,0,0,1-.079,1.351,2.626,2.626,0,0,1-.588,1.235,2.594,2.594,0,0,1-2.554.675,4.429,4.429,0,0,1-2.169-1.565l.191-.075a5.585,5.585,0,0,1-.127,1.625,2.709,2.709,0,0,1-.794,1.434,2.137,2.137,0,0,1-1.517.568,2.383,2.383,0,0,1-1.478-.667,4.921,4.921,0,0,1-.949-1.3,12.739,12.739,0,0,0-.83-1.355,15.831,15.831,0,0,0-2.081-2.407h.032a8.13,8.13,0,0,1-2.344.612,18.986,18.986,0,0,1-2.4.187Z" transform="translate(-138.166 -269.489)" fill="#263238"/>
    <path id="Контур_339" data-name="Контур 339" d="M90.31,294.777l16.354,5.891s3.869-11.52,4.135-18.829-4.08-6.57-9.005-1.41A166.137,166.137,0,0,0,90.31,294.777Z" transform="translate(-79.727 -233.676)" fill="#4dd1cd"/>
    <path id="Контур_340" data-name="Контур 340" d="M114.579,290.2a6.315,6.315,0,0,1-.536,1.724,6.175,6.175,0,0,1-.957,1.525,6.244,6.244,0,0,1,.536-1.72A6.317,6.317,0,0,1,114.579,290.2ZM96.6,303.964l.433.155a6.015,6.015,0,0,0,.493-1.617A5.93,5.93,0,0,0,96.6,303.964Zm10.3-2.189a6.247,6.247,0,0,0,.838,1.589,6.356,6.356,0,0,0-.4-1.756,6.529,6.529,0,0,0-.842-1.589A6.288,6.288,0,0,0,106.9,301.775Zm-4.91-8.187a8.039,8.039,0,0,0-1.033.473h0l-.266.334a6.726,6.726,0,0,0,1.466-.373,6.143,6.143,0,0,0,1.589-.842,6.356,6.356,0,0,0-1.756.4Z" transform="translate(-83.519 -241.961)" fill="#fff"/>
    <path id="Контур_341" data-name="Контур 341" d="M110.771,321.822a109.929,109.929,0,0,0-13.939-4.882c-.028,0-.068.1-.044.111,3.722,1.557,11.361,4.1,13.9,4.934C110.771,322,110.835,321.842,110.771,321.822Z" transform="translate(-83.628 -258.079)" fill="#263238"/>
    <path id="Контур_342" data-name="Контур 342" d="M132.786,310.351c0-.024-.028-.036-.04,0-.294.564-.556,1.136-.794,1.72q.429-1.919.767-3.845a.036.036,0,0,0-.072,0c-1.1,3.77-2.288,7.524-3.3,11.317a9.437,9.437,0,0,1-1.251-.1.056.056,0,0,0-.024.107c.453.111.9.254,1.339.4a.214.214,0,0,0,.282-.1,56.3,56.3,0,0,0,1.986-6.594c.171-.342.338-.683.485-1.037a12.975,12.975,0,0,0,.628-1.867Z" transform="translate(-102.465 -252.804)" fill="#263238"/>
    <path id="Контур_343" data-name="Контур 343" d="M142.269,256.029c.079.886,3.372,7.031,7.313,7.408,1.283.123,2.256-6.856,2.256-6.856l.191-.5,2.646-6.983-7.694-6.654-1.12-.894s-.6,1.958-1.319,4.405c-.036.111-.072.226-.1.346s-.091.27-.123.4c-.115.365-.226.739-.334,1.112-.079.282-.159.556-.234.858s-.155.592-.238.894A48.209,48.209,0,0,0,142.269,256.029Z" transform="translate(-111.046 -212.636)" fill="#f7a9a0"/>
    <path id="Контур_344" data-name="Контур 344" d="M148,245.945a14.968,14.968,0,0,0,7.488,10.125l2.646-6.983-7.694-6.654-1.12-.894S148.715,243.5,148,245.945Z" transform="translate(-114.501 -212.63)" fill="#263238"/>
    <path id="Контур_345" data-name="Контур 345" d="M166.858,209.4c-.675,13.109-8.592,14.165-11.412,14.014-2.562-.135-11.269-.918-11.953-14.01s5.621-16.914,11.5-16.914S167.533,196.311,166.858,209.4Z" transform="translate(-111.753 -183.064)" fill="#f7a9a0"/>
    <path id="Контур_346" data-name="Контур 346" d="M195.292,226.842a8.081,8.081,0,0,1-.87-.25,1.466,1.466,0,0,1-.838-.425.473.473,0,0,1,.04-.568,1.168,1.168,0,0,1,1.16-.187,1.712,1.712,0,0,1,1.017.679.493.493,0,0,1-.508.751Z" transform="translate(-141.932 -202.861)" fill="#263238"/>
    <path id="Контур_347" data-name="Контур 347" d="M176.219,225.648a6.2,6.2,0,0,0,.894-.123,1.458,1.458,0,0,0,.894-.3.465.465,0,0,0,.04-.568,1.152,1.152,0,0,0-1.116-.354,1.72,1.72,0,0,0-1.108.52.5.5,0,0,0,.4.822Z" transform="translate(-131.201 -202.224)" fill="#263238"/>
    <path id="Контур_348" data-name="Контур 348" d="M178.639,235.866c0-.036-.075.04-.075.075,0,.894-.183,1.911-1.005,2.169-.028,0-.028.052,0,.048C178.551,238.07,178.766,236.708,178.639,235.866Z" transform="translate(-132.305 -209.204)" fill="#263238"/>
    <path id="Контур_349" data-name="Контур 349" d="M176.56,233.427c-1.43-.183-1.684,2.685-.361,2.856S177.755,233.578,176.56,233.427Z" transform="translate(-130.977 -207.735)" fill="#263238"/>
    <path id="Контур_350" data-name="Контур 350" d="M174.422,233.314c-.266.139-.536.4-.842.4s-.592-.322-.794-.632c0-.032-.048,0-.052.028-.056.548.1,1.132.687,1.267s.961-.33,1.148-.87C174.593,233.437,174.518,233.259,174.422,233.314Z" transform="translate(-129.404 -207.522)" fill="#263238"/>
    <path id="Контур_351" data-name="Контур 351" d="M192.388,236.489c0-.032.064.048.06.087-.115.882-.1,1.919.679,2.292.024,0,0,.056,0,.048C192.158,238.674,192.158,237.311,192.388,236.489Z" transform="translate(-141.181 -209.581)" fill="#263238"/>
    <path id="Контур_352" data-name="Контур 352" d="M193.307,234.36c1.438.032,1.271,2.908-.06,2.88S192.1,234.336,193.307,234.36Z" transform="translate(-141.218 -208.302)" fill="#263238"/>
    <path id="Контур_353" data-name="Контур 353" d="M196.053,234.818c.218.167.429.457.7.493s.564-.258.794-.548c.024-.028.044,0,.044.036-.02.548-.234,1.112-.767,1.192s-.814-.425-.914-.981C195.878,234.9,195.965,234.755,196.053,234.818Z" transform="translate(-143.376 -208.538)" fill="#263238"/>
    <path id="Контур_354" data-name="Контур 354" d="M178.5,253.093c.183.234.357.548.675.62a2.336,2.336,0,0,0,.977-.1.032.032,0,0,1,.036.052,1.192,1.192,0,0,1-1.192.326.945.945,0,0,1-.592-.874.052.052,0,0,1,.1-.028Z" transform="translate(-132.825 -219.579)" fill="#263238"/>
    <path id="Контур_355" data-name="Контур 355" d="M183.353,233.675s.079,1.343.032,1.986c0,.056-2.328.35-3.206-1.271a.064.064,0,0,1,.1-.079,4.52,4.52,0,0,0,2.661.993c.056-.171-.214-2.3-.115-2.3a5.4,5.4,0,0,1,1.4.433c-.087-2.8-.62-5.561-.663-8.362a.087.087,0,0,1,.167-.028,45.571,45.571,0,0,1,1.1,8.973C184.866,234.37,183.6,233.8,183.353,233.675Z" transform="translate(-133.889 -202.66)" fill="#263238"/>
    <path id="Контур_356" data-name="Контур 356" d="M141.628,206.515a5.307,5.307,0,0,0,3.917-3.484c11.218-.274,14.928-7.234,14.928-7.234,2.153,5.859,4.076,6.864,4.389,7.746,0,0,.933-5.081-.763-8.954a10.646,10.646,0,0,0-11.416-6.32c-3.436.441-6.328,3.416-6.328,3.416s-3.714.4-5.235,3.384C138.569,200.091,141.628,206.515,141.628,206.515Z" transform="translate(-109.742 -180.456)" fill="#263238"/>
    <path id="Контур_357" data-name="Контур 357" d="M169.315,206.26a9.089,9.089,0,0,1-2.232,3.885,11.719,11.719,0,0,1-3.71,2.586l-1.065.4c-.361.123-.731.2-1.1.3a14.209,14.209,0,0,1-2.228.4c-.751.068-1.506.056-2.256.083-.747-.068-1.494-.119-2.236-.2.751-.024,1.494,0,2.236-.024a20.543,20.543,0,0,0,2.213-.207,16.437,16.437,0,0,0,4.25-1.16,11.968,11.968,0,0,0,3.643-2.415A10.519,10.519,0,0,0,169.315,206.26Z" transform="translate(-118.413 -191.364)" fill="#263238"/>
    <path id="Контур_358" data-name="Контур 358" d="M167.935,234.224a4.163,4.163,0,1,1,5.025-4.234h0a4.167,4.167,0,0,1-4,4.322A4.393,4.393,0,0,1,167.935,234.224Zm1.613-7.6a3.7,3.7,0,0,0-.894-.076,3.6,3.6,0,1,0,.894.076Z" transform="translate(-124.53 -203.256)" fill="#455a64"/>
    <path id="Контур_359" data-name="Контур 359" d="M193.17,236.29c-1.557-.334-2.63-2.228-2.427-4.389a4.958,4.958,0,0,1,1.144-2.816,2.594,2.594,0,0,1,4.421.4,4.957,4.957,0,0,1,.6,2.979c-.215,2.284-1.772,4.016-3.472,3.857A1.023,1.023,0,0,1,193.17,236.29Zm1.192-7.659a1.191,1.191,0,0,0-.207-.032,2.217,2.217,0,0,0-1.859.85,4.425,4.425,0,0,0-1.009,2.5c-.187,1.986.794,3.694,2.2,3.825s2.681-1.374,2.864-3.353a4.417,4.417,0,0,0-.528-2.646,2.292,2.292,0,0,0-1.45-1.148Z" transform="translate(-140.25 -204.484)" fill="#455a64"/>
    <path id="Контур_360" data-name="Контур 360" d="M184.648,235.688l-.318-.457c.679-.469,2.2-1.041,3.11.135l-.441.342C186.185,234.651,184.711,235.648,184.648,235.688Z" transform="translate(-136.4 -208.49)" fill="#455a64"/>
    <path id="Контур_361" data-name="Контур 361" d="M137.689,231.738l-.469-.3c.139-.218,1.406-2.137,2.661-2.221,1.192-.076,8.532,1.315,8.846,1.374l-.1.544c-2.109-.4-7.8-1.426-8.707-1.362C139.091,229.827,138.026,231.21,137.689,231.738Z" transform="translate(-108.003 -205.199)" fill="#455a64"/>
    <path id="Контур_362" data-name="Контур 362" d="M140.988,229.689s-2.272-4.445-4.25-3.69-.663,6.924,1.382,8.028a2.217,2.217,0,0,0,3.059-.691l.048-.079Z" transform="translate(-107.124 -203.21)" fill="#f7a9a0"/>
    <path id="Контур_363" data-name="Контур 363" d="M139.227,230.56c-.036,0-.048.04-.02.056a5.58,5.58,0,0,1,2.383,3.869,1.225,1.225,0,0,0-1.768-.584.048.048,0,0,0,.028.087,1.362,1.362,0,0,1,1.422.679,6.654,6.654,0,0,1,.544,1.3c.052.147.306.107.278-.056a.116.116,0,0,1,0-.036C142.4,233.948,141.272,231.041,139.227,230.56Z" transform="translate(-109.192 -206.011)" fill="#263238"/>
  </g>
  <g id="freepik--Lines--inject-10" transform="translate(84.984 130.627)">
    <path id="Контур_364" data-name="Контур 364" d="M269.109,415.387a33.475,33.475,0,0,1-3.837-.584,32.677,32.677,0,0,1-3.762-.973A37.882,37.882,0,0,1,269.109,415.387Z" transform="translate(-261.51 -402.866)" fill="#263238"/>
    <path id="Контур_365" data-name="Контур 365" d="M308.157,395.362c-.155-1.521-.191-3.043-.2-4.564a45.048,45.048,0,0,1,.2-4.568,45.056,45.056,0,0,1,.2,4.568C308.347,392.319,308.312,393.841,308.157,395.362Z" transform="translate(-289.507 -386.23)" fill="#263238"/>
    <path id="Контур_366" data-name="Контур 366" d="M291.945,398.2a41.509,41.509,0,0,1-2.383-3.575,40.554,40.554,0,0,1-2.062-3.79,46.42,46.42,0,0,1,4.465,7.377Z" transform="translate(-277.176 -389.009)" fill="#263238"/>
    <path id="Контур_367" data-name="Контур 367" d="M263.65,391.7c.882.679,1.736,1.39,2.586,2.105s1.68,1.446,2.51,2.185,1.648,1.486,2.451,2.252l1.192,1.148,1.192,1.192c-.441-.338-.87-.691-1.3-1.037L271,398.477c-.85-.711-1.68-1.446-2.51-2.185s-1.648-1.486-2.451-2.252S264.425,392.5,263.65,391.7Z" transform="translate(-262.8 -389.527)" fill="#263238"/>
    <path id="Контур_368" data-name="Контур 368" d="M326.62,413.637a33.7,33.7,0,0,1,3.758-.973,32.7,32.7,0,0,1,3.841-.584A38.032,38.032,0,0,1,326.62,413.637Z" transform="translate(-300.757 -401.812)" fill="#263238"/>
    <path id="Контур_369" data-name="Контур 369" d="M326.931,389.74c-.771.794-1.589,1.589-2.383,2.332s-1.629,1.509-2.451,2.252-1.66,1.474-2.514,2.185l-1.275,1.069c-.437.346-.862.7-1.307,1.037l1.192-1.192,1.192-1.148c.794-.767,1.629-1.509,2.451-2.252s1.66-1.474,2.514-2.185S326.053,390.419,326.931,389.74Z" transform="translate(-294.958 -388.346)" fill="#263238"/>
  </g>
  <g id="freepik--Lamp--inject-10" transform="translate(116.611 74.153)">
    <path id="Контур_370" data-name="Контур 370" d="M362.971,255.572l1.128-.151-1.827-44.112-13.1-18.459-.977.8,13.033,18.376Z" transform="translate(-326.513 -190.419)" fill="#263238"/>
    <path id="Контур_371" data-name="Контур 371" d="M429.058,295.149a1.589,1.589,0,1,1-1.589-1.589A1.589,1.589,0,0,1,429.058,295.149Z" transform="translate(-392.223 -273.897)" fill="#4dd1cd"/>
    <path id="Контур_372" data-name="Контур 372" d="M396.488,249.189A1.589,1.589,0,1,1,394.9,247.6,1.589,1.589,0,0,1,396.488,249.189Z" transform="translate(-372.591 -246.194)" fill="#4dd1cd"/>
    <path id="Контур_373" data-name="Контур 373" d="M322.36,190.349l6.177,9.442,4.084-3.722,2.487-2.268-4.636-7.071L327.4,188.1Z" transform="translate(-310.944 -186.73)" fill="#4dd1cd"/>
    <path id="Контур_374" data-name="Контур 374" d="M322.36,192.428l6.177,9.442,4.084-3.722L327.4,190.18Z" transform="translate(-310.944 -188.81)" opacity="0.1"/>
    <path id="Контур_375" data-name="Контур 375" d="M293.62,193.591,304.4,210.052l10.292-9.684-8.076-12.338Z" transform="translate(-293.62 -187.514)" fill="#4dd1cd"/>
    <path id="Контур_376" data-name="Контур 376" d="M360.87,351.171H380.3l-1.2-6.1H362.062Z" transform="translate(-334.156 -282.173)" fill="#4dd1cd"/>
  </g>
  <g id="freepik--speech-bubbles--inject-10" transform="translate(53.432 25.994)">
    <path id="Контур_377" data-name="Контур 377" d="M209.22,136.324a12.024,12.024,0,0,1-20.092,7.607l-6.018.9,3.011-5.2a12.044,12.044,0,1,1,23.115-3.448v.163Z" transform="translate(-182.697 -122.9)" fill="#fff"/>
    <path id="Контур_378" data-name="Контур 378" d="M208.593,136.21a12.087,12.087,0,0,1-2.427,6.093,10.829,10.829,0,0,1-2.36,2.332,12.127,12.127,0,0,1-6.137,2.383,12.372,12.372,0,0,1-1.672.032,10.244,10.244,0,0,1-1.664-.175,12.116,12.116,0,0,1-5.958-2.936l.143.044-6.01.922-.437.068.218-.4,3-5.212v.191a12.163,12.163,0,0,1,.731-10.725,12.314,12.314,0,0,1,3.766-4.012,12.147,12.147,0,0,1,18.809,11.357Zm0,0a11.917,11.917,0,0,0-18.606-11.055,12.366,12.366,0,0,0-3.6,3.925,11.917,11.917,0,0,0-1.525,5.089,12.04,12.04,0,0,0,.846,5.239l.044.107-.056.1-3.031,5.192-.215-.318,6.022-.842h.083l.06.056a11.818,11.818,0,0,0,5.76,2.963,9.8,9.8,0,0,0,1.633.2,11.364,11.364,0,0,0,1.645,0,11.917,11.917,0,0,0,3.214-.707,11.253,11.253,0,0,0,2.9-1.565,13.421,13.421,0,0,0,1.271-1.061,13,13,0,0,0,1.092-1.243,12.056,12.056,0,0,0,2.463-6.078Z" transform="translate(-182.07 -122.786)" fill="#263238"/>
    <path id="Контур_379" data-name="Контур 379" d="M231.186,152.138a1.458,1.458,0,1,1-1.458-1.458h0a1.454,1.454,0,0,1,1.458,1.45Z" transform="translate(-209.918 -139.6)" fill="#263238"/>
    <path id="Контур_380" data-name="Контур 380" d="M218.046,152.138a1.458,1.458,0,1,1-1.458-1.458h0a1.454,1.454,0,0,1,1.454,1.454Z" transform="translate(-201.998 -139.6)" fill="#263238"/>
    <path id="Контур_381" data-name="Контур 381" d="M204.916,152.138a1.458,1.458,0,1,1-1.458-1.458h0a1.454,1.454,0,0,1,1.458,1.45Z" transform="translate(-194.083 -139.6)" fill="#263238"/>
    <rect id="Прямоугольник_432" data-name="Прямоугольник 432" width="32.39" height="17.863" transform="translate(21.554 35.633)" fill="#455a64"/>
    <path id="Контур_382" data-name="Контур 382" d="M254.62,200.13h6.244v4.516Z" transform="translate(-206.921 -146.634)" fill="#455a64"/>
    <rect id="Прямоугольник_433" data-name="Прямоугольник 433" width="14.686" height="0.401" transform="translate(25.494 38.93)" fill="#fff"/>
    <rect id="Прямоугольник_434" data-name="Прямоугольник 434" width="24.664" height="0.401" transform="translate(25.494 41.103)" fill="#fff"/>
    <rect id="Прямоугольник_435" data-name="Прямоугольник 435" width="24.664" height="0.401" transform="translate(25.494 43.276)" fill="#fff"/>
    <rect id="Прямоугольник_436" data-name="Прямоугольник 436" width="19.937" height="0.401" transform="translate(25.494 45.449)" fill="#fff"/>
    <rect id="Прямоугольник_437" data-name="Прямоугольник 437" width="24.664" height="0.401" transform="translate(25.494 47.621)" fill="#fff"/>
    <rect id="Прямоугольник_438" data-name="Прямоугольник 438" width="9.073" height="0.401" transform="translate(25.494 49.794)" fill="#fff"/>
    <rect id="Прямоугольник_439" data-name="Прямоугольник 439" width="32.172" height="13.252" transform="translate(15.111 57.866)" fill="#4dd1cd"/>
    <path id="Контур_383" data-name="Контур 383" d="M179.039,244.48H172.58v4.258Z" transform="translate(-157.469 -173.366)" fill="#4dd1cd"/>
    <rect id="Прямоугольник_440" data-name="Прямоугольник 440" width="24.394" height="0.401" transform="translate(19.023 61.163)" fill="#fff"/>
    <rect id="Прямоугольник_441" data-name="Прямоугольник 441" width="13.919" height="0.401" transform="translate(19.023 63.336)" fill="#fff"/>
    <rect id="Прямоугольник_442" data-name="Прямоугольник 442" width="18.813" height="0.401" transform="translate(19.023 65.509)" fill="#fff"/>
    <rect id="Прямоугольник_443" data-name="Прямоугольник 443" width="6.554" height="0.401" transform="translate(19.023 67.681)" fill="#fff"/>
  </g>
  <g id="freepik--Device--inject-10" transform="translate(52.636 99.353)">
    <rect id="Прямоугольник_444" data-name="Прямоугольник 444" width="3.229" height="2.109" transform="translate(32.081 45.308)" fill="#ebebeb"/>
    <rect id="Прямоугольник_445" data-name="Прямоугольник 445" width="3.229" height="2.109" transform="translate(36.268 45.169)" fill="#ebebeb"/>
    <rect id="Прямоугольник_446" data-name="Прямоугольник 446" width="3.229" height="2.109" transform="translate(40.459 45.03)" fill="#ebebeb"/>
    <rect id="Прямоугольник_447" data-name="Прямоугольник 447" width="3.229" height="2.109" transform="translate(44.646 44.891)" fill="#ebebeb"/>
    <rect id="Прямоугольник_448" data-name="Прямоугольник 448" width="3.229" height="2.109" transform="translate(48.836 44.752)" fill="#ebebeb"/>
    <rect id="Прямоугольник_449" data-name="Прямоугольник 449" width="3.229" height="2.109" transform="translate(53.023 44.613)" fill="#ebebeb"/>
    <rect id="Прямоугольник_450" data-name="Прямоугольник 450" width="3.229" height="2.109" transform="translate(57.21 44.474)" fill="#ebebeb"/>
    <rect id="Прямоугольник_451" data-name="Прямоугольник 451" width="3.229" height="2.109" transform="translate(61.401 44.335)" fill="#ebebeb"/>
    <rect id="Прямоугольник_452" data-name="Прямоугольник 452" width="3.229" height="2.109" transform="translate(65.587 44.196)" fill="#ebebeb"/>
    <path id="Контур_384" data-name="Контур 384" d="M249.657,367.079H211.34v-2.57l38.317-1.069Z" transform="translate(-180.049 -318.446)" fill="#dbdbdb"/>
    <path id="Контур_385" data-name="Контур 385" d="M298.727,289.917H245.34l8.489-39.747h53.388Z" transform="translate(-200.544 -250.17)" fill="#ebebeb"/>
    <path id="Контур_386" data-name="Контур 386" d="M303.7,289.917H250.31L258.8,250.17h53.388Z" transform="translate(-203.539 -250.17)" fill="#dbdbdb"/>
    <ellipse id="Эллипс_9" data-name="Эллипс 9" cx="3.571" cy="3.051" rx="3.571" ry="3.051" transform="matrix(0.734, -0.679, 0.679, 0.734, 74.328, 17.746)" fill="#fff"/>
    <path id="Контур_387" data-name="Контур 387" d="M306.857,371.978H280.6v-2.042l26.257-.846Z" transform="translate(-221.797 -321.852)" fill="#ebebeb"/>
    <path id="Контур_388" data-name="Контур 388" d="M330.39,342.553h-14.1L307.8,320.28h14.1Z" transform="translate(-238.193 -292.43)" fill="#ebebeb"/>
    <path id="Контур_389" data-name="Контур 389" d="M336.236,342.553h-14.1L313.65,320.28h14.1Z" transform="translate(-241.719 -292.43)" fill="#a6a6a6"/>
    <path id="Контур_390" data-name="Контур 390" d="M207.865,420.531H180.81c-2.308,0,1.033-6.578,9.466-9.1S210.542,418.084,207.865,420.531Z" transform="translate(-180.097 -369.884)" fill="#dbdbdb"/>
    <path id="Контур_391" data-name="Контур 391" d="M223.3,424.066a8.214,8.214,0,0,1,.369-2.209,9.27,9.27,0,0,1,.914-2.062,7.385,7.385,0,0,1,1.434-1.744,6.354,6.354,0,0,1,1.9-1.192c-.29.238-.62.4-.886.663l-.4.354-.4.4A9.427,9.427,0,0,0,224.929,420a12.971,12.971,0,0,0-.961,1.958A16.4,16.4,0,0,0,223.3,424.066Z" transform="translate(-206.139 -373.419)" fill="#263238"/>
    <path id="Контур_392" data-name="Контур 392" d="M231.38,419.29a16.755,16.755,0,0,1,2.336.953,16.291,16.291,0,0,1,2.177,1.295,9.742,9.742,0,0,1,1.887,1.708,6.024,6.024,0,0,1,.7,1.076,3.177,3.177,0,0,1,.3,1.208,3.611,3.611,0,0,0-.485-1.136,5.926,5.926,0,0,0-.759-.965,13.4,13.4,0,0,0-1.887-1.589c-.671-.485-1.382-.918-2.093-1.347-.357-.214-.719-.421-1.088-.62S231.749,419.493,231.38,419.29Z" transform="translate(-211.009 -374.884)" fill="#263238"/>
  </g>
</svg>
